<svg width="410" height="265" viewBox="0 0 410 265" fill="none" xmlns="http://www.w3.org/2000/svg" xmlns:xlink="http://www.w3.org/1999/xlink">
<mask id="path-1-inside-1_3_2" fill="white">
<path d="M88 21.8557C88 9.78511 97.7851 0 109.856 0H280.538C292.609 0 302.394 9.78512 302.394 21.8557V264.35H88V21.8557Z"/>
</mask>
<path d="M88 21.8557C88 9.78511 97.7851 0 109.856 0H280.538C292.609 0 302.394 9.78512 302.394 21.8557V264.35H88V21.8557Z" fill="url(#paint0_linear_3_2)"/>
<path d="M88 21.8557C88 9.78511 97.7851 0 109.856 0H280.538C292.609 0 302.394 9.78512 302.394 21.8557V264.35H88V21.8557Z" fill="url(#pattern0)" fill-opacity="0.6" style="mix-blend-mode:overlay"/>
<path d="M86.9593 21.8557C86.9593 9.21033 97.2103 -1.04075 109.856 -1.04075H280.538C293.183 -1.04075 303.434 9.21033 303.434 21.8557H301.353C301.353 10.3599 292.034 1.04075 280.538 1.04075H109.856C98.3599 1.04075 89.0407 10.3599 89.0407 21.8557H86.9593ZM302.394 264.35H88H302.394ZM86.9593 264.35V21.8557C86.9593 9.21033 97.2103 -1.04075 109.856 -1.04075V1.04075C98.3599 1.04075 89.0407 10.3599 89.0407 21.8557V264.35H86.9593ZM280.538 -1.04075C293.183 -1.04075 303.434 9.21033 303.434 21.8557V264.35H301.353V21.8557C301.353 10.3599 292.034 1.04075 280.538 1.04075V-1.04075Z" fill="#DFE1E7" mask="url(#path-1-inside-1_3_2)"/>
<path d="M103.473 71.5182C103.429 71.1127 103.247 70.797 102.925 70.571C102.606 70.345 102.191 70.232 101.68 70.232C101.321 70.232 101.013 70.2862 100.756 70.3945C100.499 70.5029 100.303 70.6499 100.167 70.8356C100.03 71.0214 99.9608 71.2334 99.9577 71.4718C99.9577 71.6699 100.003 71.8417 100.092 71.9872C100.185 72.1327 100.311 72.2565 100.468 72.3587C100.626 72.4577 100.801 72.5413 100.993 72.6094C101.185 72.6775 101.379 72.7348 101.574 72.7812L102.465 73.0041C102.824 73.0877 103.169 73.2007 103.501 73.343C103.835 73.4854 104.134 73.665 104.397 73.8817C104.663 74.0984 104.873 74.3599 105.028 74.6664C105.183 74.9729 105.26 75.3319 105.26 75.7437C105.26 76.3009 105.118 76.7915 104.833 77.2156C104.548 77.6366 104.137 77.9663 103.598 78.2046C103.063 78.4399 102.414 78.5575 101.653 78.5575C100.913 78.5575 100.27 78.443 99.7255 78.2139C99.1838 77.9848 98.7597 77.6505 98.4532 77.2109C98.1499 76.7714 97.9858 76.2358 97.961 75.6044H99.6559C99.6806 75.9356 99.7828 76.2111 99.9623 76.4309C100.142 76.6507 100.376 76.8147 100.663 76.9231C100.954 77.0314 101.279 77.0856 101.639 77.0856C102.013 77.0856 102.341 77.0299 102.623 76.9184C102.908 76.8039 103.131 76.646 103.292 76.4448C103.453 76.2405 103.535 76.0021 103.538 75.7297C103.535 75.4821 103.462 75.2778 103.319 75.1168C103.177 74.9527 102.977 74.8165 102.72 74.7082C102.467 74.5967 102.169 74.4977 101.829 74.411L100.747 74.1324C99.9639 73.9312 99.3448 73.6263 98.8897 73.2177C98.4378 72.806 98.2118 72.2596 98.2118 71.5786C98.2118 71.0183 98.3635 70.5276 98.6668 70.1066C98.9733 69.6856 99.3896 69.3591 99.9159 69.1269C100.442 68.8916 101.038 68.774 101.704 68.774C102.378 68.774 102.97 68.8916 103.477 69.1269C103.988 69.3591 104.389 69.6825 104.68 70.0974C104.971 70.5091 105.121 70.9827 105.13 71.5182H103.473ZM109.891 71.2814V72.5815H105.791V71.2814H109.891ZM106.803 69.5727H108.484V76.2684C108.484 76.4943 108.518 76.6677 108.586 76.7884C108.657 76.906 108.75 76.9865 108.865 77.0299C108.979 77.0732 109.106 77.0949 109.246 77.0949C109.351 77.0949 109.447 77.0871 109.534 77.0716C109.623 77.0562 109.691 77.0422 109.738 77.0299L110.021 78.3439C109.931 78.3749 109.803 78.4089 109.636 78.4461C109.472 78.4832 109.27 78.5049 109.032 78.5111C108.611 78.5235 108.232 78.46 107.894 78.3207C107.557 78.1783 107.289 77.9585 107.091 77.6614C106.896 77.3642 106.8 76.9927 106.803 76.547V69.5727ZM112.957 78.5575C112.505 78.5575 112.098 78.477 111.736 78.3161C111.377 78.152 111.092 77.9105 110.881 77.5917C110.674 77.2729 110.57 76.8797 110.57 76.4123C110.57 76.0099 110.645 75.6771 110.793 75.414C110.942 75.1509 111.144 74.9404 111.401 74.7825C111.658 74.6246 111.948 74.5054 112.27 74.4249C112.595 74.3414 112.931 74.281 113.277 74.2439C113.695 74.2005 114.034 74.1618 114.294 74.1278C114.554 74.0906 114.743 74.0349 114.861 73.9606C114.981 73.8832 115.042 73.764 115.042 73.6031V73.5752C115.042 73.2254 114.938 72.9546 114.731 72.7626C114.523 72.5707 114.225 72.4747 113.834 72.4747C113.423 72.4747 113.096 72.5645 112.855 72.7441C112.616 72.9236 112.455 73.1356 112.372 73.3802L110.802 73.1573C110.926 72.7239 111.131 72.3618 111.415 72.0708C111.7 71.7767 112.048 71.5569 112.46 71.4114C112.872 71.2628 113.327 71.1885 113.825 71.1885C114.169 71.1885 114.511 71.2288 114.851 71.3093C115.192 71.3897 115.503 71.5229 115.785 71.7086C116.066 71.8912 116.292 72.1404 116.463 72.4562C116.636 72.7719 116.723 73.1666 116.723 73.6402V78.4136H115.107V77.4338H115.051C114.949 77.6319 114.805 77.8177 114.619 77.991C114.437 78.1613 114.206 78.299 113.927 78.4043C113.652 78.5064 113.328 78.5575 112.957 78.5575ZM113.393 77.3224C113.731 77.3224 114.023 77.2558 114.271 77.1227C114.519 76.9865 114.709 76.807 114.842 76.5841C114.978 76.3612 115.046 76.1182 115.046 75.8551V75.0147C114.994 75.058 114.904 75.0982 114.777 75.1354C114.653 75.1725 114.514 75.205 114.359 75.2329C114.204 75.2607 114.051 75.2855 113.899 75.3072C113.748 75.3288 113.616 75.3474 113.505 75.3629C113.254 75.397 113.03 75.4527 112.832 75.5301C112.633 75.6074 112.477 75.7158 112.363 75.8551C112.248 75.9913 112.191 76.1677 112.191 76.3844C112.191 76.694 112.304 76.9277 112.53 77.0856C112.756 77.2435 113.044 77.3224 113.393 77.3224ZM121.582 71.2814V72.5815H117.482V71.2814H121.582ZM118.494 69.5727H120.175V76.2684C120.175 76.4943 120.209 76.6677 120.277 76.7884C120.348 76.906 120.441 76.9865 120.556 77.0299C120.67 77.0732 120.797 77.0949 120.937 77.0949C121.042 77.0949 121.138 77.0871 121.224 77.0716C121.314 77.0562 121.382 77.0422 121.429 77.0299L121.712 78.3439C121.622 78.3749 121.494 78.4089 121.327 78.4461C121.163 78.4832 120.961 78.5049 120.723 78.5111C120.302 78.5235 119.923 78.46 119.585 78.3207C119.248 78.1783 118.98 77.9585 118.782 77.6614C118.587 77.3642 118.491 76.9927 118.494 76.547V69.5727ZM128.13 73.1666L126.598 73.3338C126.555 73.179 126.479 73.0335 126.371 72.8973C126.265 72.7611 126.123 72.6512 125.943 72.5676C125.764 72.484 125.544 72.4422 125.284 72.4422C124.934 72.4422 124.64 72.5181 124.402 72.6698C124.166 72.8214 124.05 73.018 124.054 73.2595C124.05 73.4669 124.126 73.6356 124.281 73.7656C124.439 73.8956 124.699 74.0024 125.061 74.086L126.278 74.346C126.952 74.4915 127.454 74.7221 127.782 75.0379C128.113 75.3536 128.28 75.7669 128.284 76.2776C128.28 76.7265 128.149 77.1227 127.889 77.4663C127.632 77.8068 127.274 78.0731 126.816 78.265C126.358 78.4569 125.832 78.5529 125.238 78.5529C124.365 78.5529 123.662 78.3702 123.129 78.005C122.597 77.6366 122.28 77.1243 122.178 76.468L123.817 76.3101C123.891 76.6321 124.049 76.8751 124.29 77.0391C124.532 77.2032 124.846 77.2852 125.233 77.2852C125.632 77.2852 125.953 77.2032 126.194 77.0391C126.439 76.8751 126.561 76.6723 126.561 76.4309C126.561 76.2266 126.482 76.0579 126.324 75.9247C126.169 75.7916 125.928 75.6895 125.6 75.6183L124.383 75.3629C123.699 75.2205 123.193 74.9806 122.865 74.6432C122.537 74.3027 122.374 73.8724 122.377 73.3523C122.374 72.9128 122.493 72.532 122.735 72.2101C122.979 71.885 123.318 71.6343 123.752 71.4579C124.188 71.2783 124.691 71.1885 125.261 71.1885C126.097 71.1885 126.754 71.3665 127.234 71.7225C127.717 72.0785 128.016 72.5599 128.13 73.1666Z" fill="#080808"/>
<g clip-path="url(#clip0_3_2)">
<circle cx="135.114" cy="74.4135" r="2.93301" fill="#AFAFAF"/>
<path fill-rule="evenodd" clip-rule="evenodd" d="M135.593 73.4024C135.639 73.3222 135.664 73.2291 135.664 73.1303C135.664 72.8266 135.418 72.5803 135.114 72.5803C134.811 72.5803 134.564 72.8266 134.564 73.1303C134.564 73.4339 134.811 73.6802 135.114 73.6802C135.319 73.6802 135.498 73.5685 135.593 73.4024ZM134.748 74.0468H134.931H135.298C135.5 74.0468 135.664 74.2108 135.664 74.4135V74.7801V76.2466C135.664 76.4492 135.5 76.6132 135.298 76.6132C135.095 76.6132 134.931 76.4492 134.931 76.2466V75.055C134.931 74.9032 134.808 74.7801 134.656 74.7801C134.504 74.7801 134.381 74.6569 134.381 74.5051V74.4135C134.381 74.2846 134.448 74.1707 134.548 74.1055C134.605 74.0683 134.674 74.0468 134.748 74.0468Z" fill="white"/>
</g>
<g filter="url(#filter0_dd_3_2)">
<rect x="97.3667" y="87.4226" width="195.045" height="144.922" rx="13.0756" fill="white"/>
<rect x="97.3667" y="87.4226" width="195.045" height="144.922" rx="13.0756" stroke="#EFEFEF" stroke-width="0.5"/>
<rect x="105.539" y="193.524" width="23.0974" height="7.69915" rx="3.84957" fill="#EFEFEF"/>
<rect x="131.518" y="164.194" width="23.0451" height="37.0292" rx="4.39951" fill="#EFEFEF"/>
<rect x="157.6" y="180.692" width="23.0974" height="20.5311" rx="4.39951" fill="#EFEFEF"/>
<rect x="183.473" y="151.362" width="23.0451" height="49.8611" rx="4.39951" fill="#EFEFEF"/>
<rect x="209.767" y="161.316" width="11.4482" height="39.5484" rx="4.39951" fill="#EFEFEF"/>
<rect x="272.212" y="173.804" width="12.489" height="27.0594" rx="4.39951" fill="#EFEFEF"/>
<line x1="105.539" y1="203.547" x2="284.453" y2="203.547" stroke="#E9E9E9" stroke-width="0.366626"/>
<rect x="225.378" y="132.175" width="43.6959" height="66.7355" rx="8.34194" fill="url(#paint1_linear_3_2)"/>
<rect x="225.378" y="132.175" width="43.6959" height="66.7355" rx="8.34194" fill="url(#pattern1)" fill-opacity="0.3" style="mix-blend-mode:overlay"/>
<g opacity="0.5" filter="url(#filter1_f_3_2)">
<path d="M232.117 154.031V153.018C231.33 152.94 230.717 152.68 230.276 152.236C229.836 151.789 229.615 151.198 229.615 150.465H230.922C230.929 150.845 231.035 151.156 231.24 151.398C231.448 151.641 231.741 151.797 232.117 151.868V149.613L231.956 149.578C231.206 149.406 230.653 149.152 230.296 148.816C229.94 148.48 229.762 148.047 229.762 147.52C229.762 146.904 229.975 146.398 230.402 146.001C230.829 145.601 231.401 145.367 232.117 145.3V144.286H233.02V145.31C233.713 145.391 234.259 145.64 234.66 146.057C235.063 146.47 235.275 147.012 235.295 147.681H234.029C234.006 147.365 233.905 147.103 233.726 146.894C233.552 146.686 233.316 146.543 233.02 146.465V148.594L233.227 148.644C234.007 148.816 234.579 149.071 234.942 149.411C235.305 149.751 235.487 150.196 235.487 150.748C235.487 151.39 235.267 151.913 234.826 152.316C234.386 152.72 233.784 152.954 233.02 153.018V154.031H232.117ZM233.02 151.883C233.37 151.826 233.647 151.704 233.853 151.52C234.058 151.335 234.16 151.104 234.16 150.828C234.16 150.586 234.071 150.386 233.893 150.228C233.718 150.07 233.427 149.936 233.02 149.825V151.883ZM232.117 148.377V146.445C231.811 146.502 231.564 146.622 231.376 146.803C231.191 146.982 231.098 147.198 231.098 147.454C231.098 147.673 231.177 147.856 231.336 148.004C231.494 148.148 231.754 148.273 232.117 148.377ZM238.957 145.401V152.917H237.671V146.662H237.661L235.86 147.827V146.607L237.727 145.401H238.957ZM242.428 153.023C241.91 153.023 241.449 152.923 241.046 152.725C240.646 152.523 240.326 152.244 240.087 151.888C239.852 151.531 239.723 151.119 239.699 150.652H240.98C241.004 151.029 241.152 151.34 241.424 151.585C241.697 151.831 242.033 151.953 242.433 151.953C242.857 151.953 243.198 151.812 243.457 151.53C243.719 151.244 243.85 150.879 243.85 150.435C243.85 149.991 243.723 149.626 243.467 149.34C243.215 149.055 242.885 148.912 242.478 148.912C242.119 148.912 241.811 148.986 241.555 149.134C241.303 149.278 241.13 149.487 241.036 149.759H239.8L240.037 145.401H244.693V146.506H241.222L241.071 148.503H241.081C241.495 148.069 242.033 147.852 242.695 147.852C243.149 147.852 243.56 147.963 243.926 148.185C244.293 148.407 244.583 148.712 244.799 149.098C245.014 149.482 245.122 149.917 245.122 150.405C245.122 150.916 245.009 151.37 244.784 151.767C244.562 152.16 244.249 152.468 243.845 152.69C243.442 152.912 242.969 153.023 242.428 153.023ZM245.303 154.44L245.702 151.752H246.958L246.206 154.44H245.303ZM247.775 152.917L251.003 146.536V146.531H247.256V145.401H252.35V146.536L249.142 152.917H247.775ZM255.336 153.023C254.819 153.023 254.358 152.923 253.954 152.725C253.554 152.523 253.235 152.244 252.996 151.888C252.761 151.531 252.631 151.119 252.608 150.652H253.889C253.912 151.029 254.06 151.34 254.333 151.585C254.605 151.831 254.941 151.953 255.341 151.953C255.765 151.953 256.106 151.812 256.365 151.53C256.628 151.244 256.759 150.879 256.759 150.435C256.759 149.991 256.631 149.626 256.376 149.34C256.123 149.055 255.794 148.912 255.387 148.912C255.027 148.912 254.719 148.986 254.464 149.134C254.212 149.278 254.038 149.487 253.944 149.759H252.708L252.946 145.401H257.601V146.506H254.131L253.98 148.503H253.99C254.403 148.069 254.941 147.852 255.604 147.852C256.058 147.852 256.468 147.963 256.835 148.185C257.201 148.407 257.492 148.712 257.707 149.098C257.922 149.482 258.03 149.917 258.03 150.405C258.03 150.916 257.917 151.37 257.692 151.767C257.47 152.16 257.157 152.468 256.754 152.69C256.35 152.912 255.878 153.023 255.336 153.023ZM261.485 153.038C260.88 153.038 260.359 152.88 259.922 152.564C259.485 152.248 259.147 151.8 258.908 151.222C258.672 150.644 258.555 149.958 258.555 149.164C258.555 148.367 258.672 147.679 258.908 147.101C259.147 146.519 259.485 146.07 259.922 145.754C260.359 145.438 260.88 145.28 261.485 145.28C262.091 145.28 262.612 145.438 263.049 145.754C263.49 146.07 263.828 146.519 264.063 147.101C264.298 147.679 264.416 148.367 264.416 149.164C264.416 149.958 264.298 150.645 264.063 151.227C263.828 151.805 263.49 152.253 263.049 152.569C262.612 152.881 262.091 153.038 261.485 153.038ZM261.485 151.938C262.003 151.938 262.41 151.691 262.706 151.197C263.005 150.702 263.155 150.025 263.155 149.164C263.155 148.296 263.005 147.615 262.706 147.121C262.41 146.627 262.003 146.38 261.485 146.38C260.968 146.38 260.559 146.627 260.26 147.121C259.964 147.615 259.816 148.296 259.816 149.164C259.816 150.025 259.964 150.702 260.26 151.197C260.559 151.691 260.968 151.938 261.485 151.938Z" fill="white"/>
</g>
<path d="M232.117 154.031V153.018C231.33 152.94 230.717 152.68 230.276 152.236C229.836 151.789 229.615 151.198 229.615 150.465H230.922C230.929 150.845 231.035 151.156 231.24 151.398C231.448 151.641 231.741 151.797 232.117 151.868V149.613L231.956 149.578C231.206 149.406 230.653 149.152 230.296 148.816C229.94 148.48 229.762 148.047 229.762 147.52C229.762 146.904 229.975 146.398 230.402 146.001C230.829 145.601 231.401 145.367 232.117 145.3V144.286H233.02V145.31C233.713 145.391 234.259 145.64 234.66 146.057C235.063 146.47 235.275 147.012 235.295 147.681H234.029C234.006 147.365 233.905 147.103 233.726 146.894C233.552 146.686 233.316 146.543 233.02 146.465V148.594L233.227 148.644C234.007 148.816 234.579 149.071 234.942 149.411C235.305 149.751 235.487 150.196 235.487 150.748C235.487 151.39 235.267 151.913 234.826 152.316C234.386 152.72 233.784 152.954 233.02 153.018V154.031H232.117ZM233.02 151.883C233.37 151.826 233.647 151.704 233.853 151.52C234.058 151.335 234.16 151.104 234.16 150.828C234.16 150.586 234.071 150.386 233.893 150.228C233.718 150.07 233.427 149.936 233.02 149.825V151.883ZM232.117 148.377V146.445C231.811 146.502 231.564 146.622 231.376 146.803C231.191 146.982 231.098 147.198 231.098 147.454C231.098 147.673 231.177 147.856 231.336 148.004C231.494 148.148 231.754 148.273 232.117 148.377ZM238.957 145.401V152.917H237.671V146.662H237.661L235.86 147.827V146.607L237.727 145.401H238.957ZM242.428 153.023C241.91 153.023 241.449 152.923 241.046 152.725C240.646 152.523 240.326 152.244 240.087 151.888C239.852 151.531 239.723 151.119 239.699 150.652H240.98C241.004 151.029 241.152 151.34 241.424 151.585C241.697 151.831 242.033 151.953 242.433 151.953C242.857 151.953 243.198 151.812 243.457 151.53C243.719 151.244 243.85 150.879 243.85 150.435C243.85 149.991 243.723 149.626 243.467 149.34C243.215 149.055 242.885 148.912 242.478 148.912C242.119 148.912 241.811 148.986 241.555 149.134C241.303 149.278 241.13 149.487 241.036 149.759H239.8L240.037 145.401H244.693V146.506H241.222L241.071 148.503H241.081C241.495 148.069 242.033 147.852 242.695 147.852C243.149 147.852 243.56 147.963 243.926 148.185C244.293 148.407 244.583 148.712 244.799 149.098C245.014 149.482 245.122 149.917 245.122 150.405C245.122 150.916 245.009 151.37 244.784 151.767C244.562 152.16 244.249 152.468 243.845 152.69C243.442 152.912 242.969 153.023 242.428 153.023ZM245.303 154.44L245.702 151.752H246.958L246.206 154.44H245.303ZM247.775 152.917L251.003 146.536V146.531H247.256V145.401H252.35V146.536L249.142 152.917H247.775ZM255.336 153.023C254.819 153.023 254.358 152.923 253.954 152.725C253.554 152.523 253.235 152.244 252.996 151.888C252.761 151.531 252.631 151.119 252.608 150.652H253.889C253.912 151.029 254.06 151.34 254.333 151.585C254.605 151.831 254.941 151.953 255.341 151.953C255.765 151.953 256.106 151.812 256.365 151.53C256.628 151.244 256.759 150.879 256.759 150.435C256.759 149.991 256.631 149.626 256.376 149.34C256.123 149.055 255.794 148.912 255.387 148.912C255.027 148.912 254.719 148.986 254.464 149.134C254.212 149.278 254.038 149.487 253.944 149.759H252.708L252.946 145.401H257.601V146.506H254.131L253.98 148.503H253.99C254.403 148.069 254.941 147.852 255.604 147.852C256.058 147.852 256.468 147.963 256.835 148.185C257.201 148.407 257.492 148.712 257.707 149.098C257.922 149.482 258.03 149.917 258.03 150.405C258.03 150.916 257.917 151.37 257.692 151.767C257.47 152.16 257.157 152.468 256.754 152.69C256.35 152.912 255.878 153.023 255.336 153.023ZM261.485 153.038C260.88 153.038 260.359 152.88 259.922 152.564C259.485 152.248 259.147 151.8 258.908 151.222C258.672 150.644 258.555 149.958 258.555 149.164C258.555 148.367 258.672 147.679 258.908 147.101C259.147 146.519 259.485 146.07 259.922 145.754C260.359 145.438 260.88 145.28 261.485 145.28C262.091 145.28 262.612 145.438 263.049 145.754C263.49 146.07 263.828 146.519 264.063 147.101C264.298 147.679 264.416 148.367 264.416 149.164C264.416 149.958 264.298 150.645 264.063 151.227C263.828 151.805 263.49 152.253 263.049 152.569C262.612 152.881 262.091 153.038 261.485 153.038ZM261.485 151.938C262.003 151.938 262.41 151.691 262.706 151.197C263.005 150.702 263.155 150.025 263.155 149.164C263.155 148.296 263.005 147.615 262.706 147.121C262.41 146.627 262.003 146.38 261.485 146.38C260.968 146.38 260.559 146.627 260.26 147.121C259.964 147.615 259.816 148.296 259.816 149.164C259.816 150.025 259.964 150.702 260.26 151.197C260.559 151.691 260.968 151.938 261.485 151.938Z" fill="white"/>
<rect x="106.733" y="97.8301" width="36.4261" height="6.24448" rx="2.08149" fill="#EFEFEF"/>
<rect x="106.733" y="110.319" width="60.3633" height="14.5704" rx="2.08149" fill="#EFEFEF"/>
<rect x="106.733" y="128.012" width="56.2003" height="6.24448" rx="2.08149" fill="#EFEFEF"/>
<rect x="109.856" y="208.149" width="13.5297" height="4.16298" fill="#EFEFEF"/>
<rect x="135.874" y="208.149" width="12.489" height="4.16298" fill="#EFEFEF"/>
<rect x="160.852" y="208.149" width="13.5297" height="4.16298" fill="#EFEFEF"/>
<rect x="186.871" y="208.149" width="12.489" height="4.16298" fill="#EFEFEF"/>
<rect x="211.849" y="208.149" width="13.5297" height="4.16298" fill="#EFEFEF"/>
<rect x="270.131" y="208.149" width="13.5297" height="4.16298" fill="#EFEFEF"/>
<rect x="236.827" y="206.068" width="23.0451" height="11.732" rx="5.86602" fill="black"/>
<path d="M245.255 213.489C244.872 213.489 244.567 213.383 244.34 213.17C244.113 212.957 244 212.653 244 212.258V212.008H244.675V212.26C244.675 212.464 244.727 212.62 244.83 212.729C244.934 212.835 245.073 212.888 245.247 212.888C245.423 212.888 245.562 212.835 245.665 212.729C245.77 212.62 245.822 212.464 245.822 212.26V209.47H246.527V212.268C246.527 212.66 246.412 212.962 246.181 213.173C245.952 213.384 245.644 213.489 245.255 213.489ZM248.03 213.489C247.736 213.489 247.495 213.395 247.309 213.205C247.123 213.015 247.03 212.74 247.03 212.38V210.624H247.7V212.274C247.7 212.479 247.75 212.636 247.849 212.742C247.948 212.848 248.088 212.902 248.267 212.902C248.444 212.902 248.59 212.847 248.706 212.737C248.823 212.627 248.881 212.452 248.881 212.213V210.624H249.554V213.434H248.895V213.003C248.698 213.327 248.409 213.489 248.03 213.489ZM250.714 211.845V213.434H250.044V210.624H250.704V211.055C250.899 210.731 251.186 210.569 251.566 210.569C251.86 210.569 252.1 210.663 252.286 210.853C252.474 211.043 252.568 211.318 252.568 211.678V213.434H251.895V211.784C251.895 211.579 251.846 211.422 251.746 211.316C251.647 211.21 251.508 211.156 251.329 211.156C251.153 211.156 251.007 211.211 250.89 211.321C250.773 211.431 250.714 211.606 250.714 211.845Z" fill="white"/>
</g>
<path d="M108.295 36.4261C112.605 36.4261 116.1 32.9315 116.1 28.6205C116.1 24.3096 112.605 20.8149 108.295 20.8149C103.984 20.8149 100.489 24.3096 100.489 28.6205C100.489 29.8656 100.78 31.0425 101.299 32.0868C101.999 28.9975 104.566 27.0054 107.972 27.0054C110.034 27.0054 112.204 27.8465 113.534 29.4742L111.472 31.2647C110.712 30.3695 109.573 29.7455 108.135 29.7455C105.775 29.7455 104.201 31.4004 104.201 33.8149C104.201 34.4025 104.294 34.943 104.467 35.425C105.598 36.0625 106.904 36.4261 108.295 36.4261Z" fill="#5F57FF"/>
<path d="M120.332 33.6206V23.4706H124.006C126.436 23.4706 127.48 24.8716 127.48 26.7586C127.48 28.9602 125.993 30.0038 123.806 30.0038H122.062V33.6206H120.332ZM122.062 28.4455H123.634C125.049 28.4455 125.693 27.7307 125.693 26.73C125.693 25.6579 125.006 25.0145 123.763 25.0145H122.062V28.4455ZM130.941 33.735C129.011 33.735 127.567 32.3197 127.567 30.161C127.567 28.0595 129.011 26.5442 130.927 26.5442C131.813 26.5442 132.585 26.873 133.085 27.502L133.114 27.4877V26.6443H134.715V33.6206H133.185V32.7057L133.157 32.6914C132.656 33.3633 131.913 33.735 130.941 33.735ZM131.198 32.2768C132.285 32.2768 133.185 31.4334 133.185 30.1753C133.185 28.9316 132.342 27.9881 131.198 27.9881C130.083 27.9881 129.197 28.8315 129.197 30.1753C129.197 31.4048 130.012 32.2768 131.198 32.2768ZM136.564 36.4512L137.822 33.2346L134.963 26.6443H136.678L138.594 31.319H138.622L140.409 26.6443H142.053L138.222 36.4512H136.564ZM142.384 36.4512V26.6443H143.986V27.4734H144.014C144.529 26.873 145.301 26.5442 146.216 26.5442C148.146 26.5442 149.589 28.0595 149.589 30.161C149.589 32.3197 148.146 33.735 146.201 33.735C145.258 33.735 144.529 33.3919 144.014 32.7629L143.986 32.7772V36.4512H142.384ZM145.958 32.2768C147.131 32.2768 147.96 31.4048 147.96 30.1753C147.96 28.8315 147.059 27.9881 145.944 27.9881C144.743 27.9881 143.914 28.9316 143.914 30.1753C143.914 31.4334 144.815 32.2768 145.958 32.2768ZM151.163 25.615C150.563 25.615 150.091 25.1289 150.091 24.5428C150.091 23.971 150.563 23.4849 151.163 23.4849C151.764 23.4849 152.25 23.971 152.25 24.5428C152.25 25.1289 151.764 25.615 151.163 25.615ZM150.363 33.6206V26.6443H151.964V33.6206H150.363ZM153.157 36.4512V26.6443H154.758V27.4734H154.787C155.301 26.873 156.073 26.5442 156.988 26.5442C158.918 26.5442 160.362 28.0595 160.362 30.161C160.362 32.3197 158.918 33.735 156.974 33.735C156.031 33.735 155.301 33.3919 154.787 32.7629L154.758 32.7772V36.4512H153.157ZM156.731 32.2768C157.903 32.2768 158.732 31.4048 158.732 30.1753C158.732 28.8315 157.832 27.9881 156.717 27.9881C155.516 27.9881 154.687 28.9316 154.687 30.1753C154.687 31.4334 155.587 32.2768 156.731 32.2768ZM167.411 30.0467C167.411 30.304 167.383 30.547 167.368 30.6614H162.279C162.479 31.6764 163.237 32.2768 164.323 32.2768C165.153 32.2768 165.724 31.9051 166.082 31.4619L167.197 32.4198C166.611 33.1774 165.739 33.735 164.238 33.735C162.122 33.735 160.621 32.3197 160.621 30.1324C160.621 27.9881 162.079 26.5442 164.123 26.5442C166.082 26.5442 167.411 28.0167 167.411 30.0467ZM164.109 27.9881C163.223 27.9881 162.536 28.4884 162.308 29.4033H165.796C165.596 28.5599 165.024 27.9881 164.109 27.9881Z" fill="#0D0D12"/>
<g filter="url(#filter2_dddddd_3_2)">
<rect x="260" y="45" width="123.824" height="30" rx="5.29412" fill="black"/>
<rect x="260" y="45" width="123.824" height="30" rx="5.29412" stroke="#EFEFEF" stroke-width="0.230951"/>
<path d="M280.588 56.7646L274.118 63.2352L271.176 60.2941" stroke="white" stroke-width="1.32353" stroke-linecap="round" stroke-linejoin="round"/>
<path d="M292.398 63.0652C291.688 63.0652 291.06 62.9015 290.516 62.5741C289.971 62.2467 289.544 61.7848 289.234 61.1885C288.923 60.5922 288.768 59.8943 288.768 59.0947C288.768 58.2881 288.923 57.5867 289.234 56.9904C289.544 56.3942 289.971 55.9323 290.516 55.6049C291.06 55.2774 291.688 55.1137 292.398 55.1137C292.977 55.1137 293.501 55.2275 293.969 55.4549C294.438 55.6824 294.824 56.003 295.127 56.4166C295.434 56.8302 295.631 57.3179 295.717 57.8797H294.326C294.223 57.3903 294 57.0111 293.659 56.7423C293.318 56.4734 292.901 56.339 292.408 56.339C291.939 56.339 291.534 56.4528 291.193 56.6802C290.855 56.9077 290.595 57.2283 290.412 57.6419C290.233 58.0555 290.143 58.5397 290.143 59.0947C290.143 59.6461 290.233 60.1287 290.412 60.5423C290.595 60.9524 290.855 61.2712 291.193 61.4987C291.531 61.7262 291.936 61.8399 292.408 61.8399C292.897 61.8399 293.313 61.7072 293.654 61.4419C293.995 61.1765 294.221 60.799 294.331 60.3096H295.717C295.631 60.8714 295.434 61.3591 295.127 61.7727C294.824 62.1829 294.438 62.5017 293.969 62.7292C293.501 62.9532 292.977 63.0652 292.398 63.0652ZM297.738 59.8546V62.9412H296.436V55.2378H297.738V58.283C298.118 57.6763 298.669 57.373 299.393 57.373C299.965 57.373 300.432 57.5574 300.794 57.9262C301.159 58.295 301.342 58.8293 301.342 59.5289V62.9412H300.034V59.7357C300.034 59.3359 299.937 59.0326 299.744 58.8258C299.551 58.619 299.281 58.5156 298.933 58.5156C298.592 58.5156 298.307 58.6225 298.08 58.8362C297.852 59.0498 297.738 59.3893 297.738 59.8546ZM304.703 63.0652C304.158 63.0652 303.686 62.9429 303.286 62.6982C302.886 62.4535 302.578 62.1174 302.361 61.69C302.147 61.2592 302.04 60.768 302.04 60.2166C302.04 59.6616 302.15 59.1705 302.371 58.7431C302.595 58.3123 302.904 57.9745 303.296 57.7298C303.689 57.4816 304.141 57.3575 304.651 57.3575C305.175 57.3575 305.633 57.4782 306.026 57.7194C306.419 57.9607 306.724 58.295 306.941 58.7224C307.158 59.1464 307.267 59.6375 307.267 60.1959V60.5526H303.317C303.334 60.9972 303.465 61.3557 303.71 61.628C303.955 61.9003 304.296 62.0364 304.734 62.0364C305.061 62.0364 305.332 61.9657 305.545 61.8244C305.759 61.6797 305.904 61.4901 305.98 61.2557H307.2C307.131 61.6107 306.979 61.9244 306.745 62.1967C306.514 62.469 306.223 62.6827 305.871 62.8378C305.52 62.9894 305.13 63.0652 304.703 63.0652ZM303.327 59.653H306.016C305.975 59.2635 305.833 58.9568 305.592 58.7328C305.354 58.5053 305.047 58.3915 304.672 58.3915C304.293 58.3915 303.984 58.5053 303.746 58.7328C303.512 58.9568 303.372 59.2635 303.327 59.653ZM310.359 63.0652C309.828 63.0652 309.361 62.9446 308.958 62.7033C308.558 62.4621 308.246 62.1277 308.022 61.7004C307.801 61.273 307.691 60.7784 307.691 60.2166C307.691 59.6547 307.801 59.1601 308.022 58.7328C308.246 58.3019 308.558 57.9659 308.958 57.7246C309.361 57.4799 309.828 57.3575 310.359 57.3575C310.817 57.3575 311.226 57.4471 311.584 57.6264C311.943 57.8021 312.23 58.0469 312.448 58.3605C312.668 58.6707 312.797 59.0292 312.835 59.4359H311.558C311.51 59.1429 311.384 58.9051 311.181 58.7224C310.981 58.5363 310.712 58.4432 310.374 58.4432C309.947 58.4432 309.613 58.6035 309.371 58.924C309.13 59.2446 309.01 59.6754 309.01 60.2166C309.01 60.7542 309.13 61.1833 309.371 61.5039C309.613 61.821 309.947 61.9795 310.374 61.9795C310.716 61.9795 310.981 61.8899 311.171 61.7107C311.36 61.528 311.486 61.285 311.548 60.9817H312.835C312.804 61.3815 312.679 61.7383 312.458 62.0519C312.241 62.3656 311.951 62.6137 311.589 62.7964C311.231 62.9756 310.821 63.0652 310.359 63.0652ZM313.503 62.9412V55.2378H314.805V59.6944H314.821L316.946 57.4816H318.512L316.294 59.8391L318.647 62.9412H317.091L315.302 60.6043L314.805 61.1161V62.9412H313.503ZM322.819 63.0291C322.275 63.0291 321.823 62.8929 321.465 62.6206C321.11 62.3449 320.932 61.9347 320.932 61.3902C320.932 60.9765 321.032 60.6577 321.232 60.4337C321.435 60.2062 321.699 60.0408 322.023 59.9374C322.351 59.834 322.702 59.7633 323.078 59.7254C323.585 59.6668 323.938 59.6151 324.138 59.5703C324.338 59.5255 324.438 59.41 324.438 59.2239V59.1825C324.438 58.9482 324.348 58.7569 324.169 58.6087C323.993 58.4605 323.75 58.3864 323.44 58.3864C323.123 58.3864 322.864 58.4605 322.664 58.6087C322.468 58.7569 322.361 58.9464 322.344 59.1774H321.087C321.118 58.6362 321.344 58.2002 321.765 57.8694C322.185 57.5385 322.752 57.373 323.466 57.373C324.176 57.373 324.731 57.5385 325.13 57.8694C325.53 58.2002 325.73 58.65 325.73 59.2187V62.9412H324.448V62.1708H324.427C324.296 62.4121 324.107 62.6154 323.859 62.7809C323.61 62.9463 323.264 63.0291 322.819 63.0291ZM323.14 62.0623C323.567 62.0623 323.891 61.952 324.112 61.7314C324.332 61.5073 324.443 61.2368 324.443 60.9197V60.3303C324.363 60.382 324.21 60.4302 323.983 60.4751C323.755 60.5164 323.507 60.5578 323.238 60.5991C322.959 60.6405 322.716 60.7198 322.509 60.837C322.306 60.9507 322.204 61.1316 322.204 61.3798C322.204 61.5935 322.289 61.7607 322.457 61.8813C322.626 62.0019 322.854 62.0623 323.14 62.0623ZM327.974 55.2378V62.9412H326.671V55.2378H327.974ZM330.223 55.2378V62.9412H328.92V55.2378H330.223ZM336.236 57.4816V58.5311H335.125V61.3746C335.125 61.5711 335.164 61.7072 335.244 61.7831C335.323 61.8555 335.468 61.8916 335.678 61.8916H336.236V62.9412H335.451C334.896 62.9412 334.484 62.8291 334.215 62.6051C333.95 62.3811 333.817 62.0347 333.817 61.5659V58.5311H332.866V57.4816H333.817V55.9926H335.125V57.4816H336.236ZM338.15 59.8546V62.9412H336.847V55.2378H338.15V58.283C338.529 57.6763 339.08 57.373 339.804 57.373C340.376 57.373 340.843 57.5574 341.205 57.9262C341.57 58.295 341.753 58.8293 341.753 59.5289V62.9412H340.445V59.7357C340.445 59.3359 340.349 59.0326 340.156 58.8258C339.962 58.619 339.692 58.5156 339.344 58.5156C339.003 58.5156 338.718 58.6225 338.491 58.8362C338.263 59.0498 338.15 59.3893 338.15 59.8546ZM345.114 63.0652C344.569 63.0652 344.097 62.9429 343.697 62.6982C343.297 62.4535 342.989 62.1174 342.772 61.69C342.558 61.2592 342.451 60.768 342.451 60.2166C342.451 59.6616 342.562 59.1705 342.782 58.7431C343.006 58.3123 343.315 57.9745 343.708 57.7298C344.1 57.4816 344.552 57.3575 345.062 57.3575C345.586 57.3575 346.044 57.4782 346.437 57.7194C346.83 57.9607 347.135 58.295 347.352 58.7224C347.57 59.1464 347.678 59.6375 347.678 60.1959V60.5526H343.728C343.745 60.9972 343.876 61.3557 344.121 61.628C344.366 61.9003 344.707 62.0364 345.145 62.0364C345.472 62.0364 345.743 61.9657 345.957 61.8244C346.17 61.6797 346.315 61.4901 346.391 61.2557H347.611C347.542 61.6107 347.39 61.9244 347.156 62.1967C346.925 62.469 346.634 62.6827 346.282 62.8378C345.931 62.9894 345.541 63.0652 345.114 63.0652ZM343.739 59.653H346.427C346.386 59.2635 346.244 58.9568 346.003 58.7328C345.765 58.5053 345.458 58.3915 345.083 58.3915C344.704 58.3915 344.395 58.5053 344.157 58.7328C343.923 58.9568 343.783 59.2635 343.739 59.653ZM352.683 63.0704C352.018 63.0704 351.461 62.9153 351.013 62.6051C350.569 62.2915 350.326 61.8417 350.284 61.2557H351.572C351.599 61.5211 351.706 61.7279 351.892 61.8761C352.078 62.0209 352.335 62.0933 352.662 62.0933C352.976 62.0933 353.223 62.0312 353.402 61.9072C353.584 61.7831 353.676 61.6245 353.676 61.4315C353.676 61.2661 353.609 61.1334 353.474 61.0334C353.34 60.9335 353.159 60.8594 352.931 60.8111L352.001 60.6198C350.939 60.3992 350.408 59.8736 350.408 59.043C350.408 58.5397 350.608 58.1348 351.008 57.828C351.408 57.5178 351.94 57.3627 352.606 57.3627C353.267 57.3627 353.805 57.5264 354.219 57.8538C354.636 58.1778 354.851 58.6207 354.865 59.1825H353.64C353.633 58.9378 353.538 58.7362 353.355 58.5777C353.173 58.4191 352.933 58.3398 352.637 58.3398C352.351 58.3398 352.125 58.4036 351.959 58.5311C351.794 58.6586 351.711 58.8155 351.711 59.0016C351.711 59.1636 351.775 59.2963 351.902 59.3997C352.03 59.4996 352.207 59.5755 352.435 59.6272L353.417 59.8288C353.958 59.9425 354.356 60.1218 354.612 60.3665C354.87 60.6112 354.999 60.9335 354.999 61.3333C354.999 61.6883 354.899 61.9968 354.699 62.2587C354.503 62.5172 354.231 62.7171 353.883 62.8584C353.534 62.9998 353.135 63.0704 352.683 63.0704ZM358.66 57.4816V58.5311H357.548V61.3746C357.548 61.5711 357.588 61.7072 357.667 61.7831C357.747 61.8555 357.891 61.8916 358.102 61.8916H358.66V62.9412H357.874C357.319 62.9412 356.907 62.8291 356.638 62.6051C356.373 62.3811 356.24 62.0347 356.24 61.5659V58.5311H355.289V57.4816H356.24V55.9926H357.548V57.4816H358.66ZM361.059 63.0291C360.514 63.0291 360.063 62.8929 359.704 62.6206C359.349 62.3449 359.172 61.9347 359.172 61.3902C359.172 60.9765 359.272 60.6577 359.472 60.4337C359.675 60.2062 359.939 60.0408 360.263 59.9374C360.59 59.834 360.942 59.7633 361.318 59.7254C361.824 59.6668 362.177 59.6151 362.377 59.5703C362.577 59.5255 362.677 59.41 362.677 59.2239V59.1825C362.677 58.9482 362.588 58.7569 362.408 58.6087C362.233 58.4605 361.99 58.3864 361.679 58.3864C361.362 58.3864 361.104 58.4605 360.904 58.6087C360.707 58.7569 360.601 58.9464 360.583 59.1774H359.327C359.358 58.6362 359.584 58.2002 360.004 57.8694C360.425 57.5385 360.992 57.373 361.705 57.373C362.415 57.373 362.97 57.5385 363.37 57.8694C363.77 58.2002 363.97 58.65 363.97 59.2187V62.9412H362.688V62.1708H362.667C362.536 62.4121 362.346 62.6154 362.098 62.7809C361.85 62.9463 361.504 63.0291 361.059 63.0291ZM361.38 62.0623C361.807 62.0623 362.131 61.952 362.352 61.7314C362.572 61.5073 362.682 61.2368 362.682 60.9197V60.3303C362.603 60.382 362.45 60.4302 362.222 60.4751C361.995 60.5164 361.747 60.5578 361.478 60.5991C361.199 60.6405 360.956 60.7198 360.749 60.837C360.545 60.9507 360.444 61.1316 360.444 61.3798C360.444 61.5935 360.528 61.7607 360.697 61.8813C360.866 62.0019 361.093 62.0623 361.38 62.0623ZM367.791 57.4816V58.5311H366.679V61.3746C366.679 61.5711 366.719 61.7072 366.798 61.7831C366.877 61.8555 367.022 61.8916 367.232 61.8916H367.791V62.9412H367.005C366.45 62.9412 366.038 62.8291 365.769 62.6051C365.504 62.3811 365.371 62.0347 365.371 61.5659V58.5311H364.42V57.4816H365.371V55.9926H366.679V57.4816H367.791ZM370.448 63.0704C369.783 63.0704 369.226 62.9153 368.778 62.6051C368.334 62.2915 368.091 61.8417 368.049 61.2557H369.337C369.364 61.5211 369.471 61.7279 369.657 61.8761C369.843 62.0209 370.1 62.0933 370.428 62.0933C370.741 62.0933 370.988 62.0312 371.167 61.9072C371.35 61.7831 371.441 61.6245 371.441 61.4315C371.441 61.2661 371.374 61.1334 371.239 61.0334C371.105 60.9335 370.924 60.8594 370.696 60.8111L369.766 60.6198C368.704 60.3992 368.173 59.8736 368.173 59.043C368.173 58.5397 368.373 58.1348 368.773 57.828C369.173 57.5178 369.705 57.3627 370.371 57.3627C371.032 57.3627 371.57 57.5264 371.984 57.8538C372.401 58.1778 372.616 58.6207 372.63 59.1825H371.405C371.398 58.9378 371.303 58.7362 371.12 58.5777C370.938 58.4191 370.698 58.3398 370.402 58.3398C370.116 58.3398 369.89 58.4036 369.724 58.5311C369.559 58.6586 369.476 58.8155 369.476 59.0016C369.476 59.1636 369.54 59.2963 369.668 59.3997C369.795 59.4996 369.973 59.5755 370.2 59.6272L371.182 59.8288C371.723 59.9425 372.122 60.1218 372.377 60.3665C372.635 60.6112 372.764 60.9335 372.764 61.3333C372.764 61.6883 372.664 61.9968 372.465 62.2587C372.268 62.5172 371.996 62.7171 371.648 62.8584C371.3 62.9998 370.9 63.0704 370.448 63.0704Z" fill="white"/>
</g>
<g filter="url(#filter3_dddddd_3_2)">
<rect x="31" y="136" width="110.706" height="29.8824" rx="5.29412" fill="white"/>
<rect x="31" y="136" width="110.706" height="29.8824" rx="5.29412" stroke="#EFEFEF" stroke-width="0.230951"/>
<g clip-path="url(#clip1_3_2)">
<path d="M49.1569 147.267C51.0142 147.461 52.4624 149.032 52.4624 150.941C52.4624 152.981 50.8081 154.636 48.768 154.636H46.6291L48.5735 156.58" stroke="#0D0D12" stroke-width="1.16667" stroke-linecap="round" stroke-linejoin="round"/>
<path d="M44.4902 154.615C42.6329 154.421 41.1846 152.85 41.1846 150.941C41.1846 148.901 42.839 147.247 44.8791 147.247H47.018L45.0735 145.302" stroke="#0D0D12" stroke-width="1.16667" stroke-linecap="round" stroke-linejoin="round"/>
</g>
<path d="M61.5265 153.941L59.4481 146.238H60.8906L61.9091 150.389C61.9884 150.727 62.0625 151.065 62.1314 151.403C62.2038 151.737 62.2727 152.073 62.3382 152.411C62.4071 152.073 62.4795 151.737 62.5553 151.403C62.6312 151.065 62.7104 150.727 62.7932 150.389L63.853 146.238H65.2955L66.345 150.389C66.4277 150.724 66.507 151.058 66.5828 151.392C66.6586 151.723 66.731 152.054 66.7999 152.385C66.9309 151.734 67.0757 151.068 67.2342 150.389L68.2527 146.238H69.7003L67.6168 153.941H66.071L64.8922 149.485C64.837 149.274 64.7836 149.054 64.7319 148.823C64.6802 148.588 64.6268 148.344 64.5716 148.089C64.5165 148.344 64.4631 148.588 64.4114 148.823C64.3597 149.054 64.3063 149.274 64.2511 149.485L63.0775 153.941H61.5265ZM71.4428 150.855V153.941H70.14V146.238H71.4428V149.283C71.822 148.676 72.3734 148.373 73.0972 148.373C73.6694 148.373 74.1364 148.557 74.4983 148.926C74.8637 149.295 75.0464 149.829 75.0464 150.529V153.941H73.7383V150.736C73.7383 150.336 73.6418 150.033 73.4488 149.826C73.2558 149.619 72.9852 149.516 72.6371 149.516C72.2959 149.516 72.0115 149.622 71.7841 149.836C71.5566 150.05 71.4428 150.389 71.4428 150.855ZM75.9978 153.941V148.482H77.3007V153.941H75.9978ZM76.6493 147.67C76.4252 147.67 76.2391 147.599 76.0909 147.458C75.9427 147.313 75.8686 147.136 75.8686 146.925C75.8686 146.715 75.9427 146.539 76.0909 146.398C76.2391 146.257 76.4252 146.186 76.6493 146.186C76.8699 146.186 77.0543 146.257 77.2025 146.398C77.3507 146.539 77.4248 146.715 77.4248 146.925C77.4248 147.136 77.3507 147.313 77.2025 147.458C77.0543 147.599 76.8699 147.67 76.6493 147.67ZM79.5499 146.238V153.941H78.247V146.238H79.5499ZM82.9054 154.065C82.3609 154.065 81.8887 153.943 81.4888 153.698C81.089 153.453 80.7805 153.117 80.5634 152.69C80.3497 152.259 80.2429 151.768 80.2429 151.217C80.2429 150.662 80.3532 150.17 80.5737 149.743C80.7978 149.312 81.1063 148.974 81.4992 148.73C81.8921 148.482 82.3436 148.358 82.8537 148.358C83.3776 148.358 83.836 148.478 84.229 148.719C84.6219 148.961 84.9269 149.295 85.1441 149.722C85.3612 150.146 85.4698 150.638 85.4698 151.196V151.553H81.5199C81.5371 151.997 81.6681 152.356 81.9128 152.628C82.1575 152.9 82.4987 153.036 82.9364 153.036C83.2639 153.036 83.5344 152.966 83.7481 152.824C83.9618 152.68 84.1066 152.49 84.1824 152.256H85.4026C85.3336 152.611 85.182 152.924 84.9476 153.197C84.7167 153.469 84.4254 153.683 84.0739 153.838C83.7223 153.989 83.3328 154.065 82.9054 154.065ZM81.5302 150.653H84.2186C84.1773 150.264 84.0359 149.957 83.7947 149.733C83.5569 149.505 83.2501 149.392 82.8744 149.392C82.4953 149.392 82.1868 149.505 81.949 149.733C81.7146 149.957 81.575 150.264 81.5302 150.653ZM90.7746 154.065C90.237 154.065 89.7665 153.946 89.3632 153.709C88.96 153.467 88.6446 153.133 88.4171 152.706C88.1931 152.278 88.081 151.782 88.081 151.217C88.081 150.651 88.1931 150.155 88.4171 149.728C88.6446 149.297 88.96 148.961 89.3632 148.719C89.7665 148.478 90.237 148.358 90.7746 148.358C91.3089 148.358 91.7776 148.478 92.1809 148.719C92.5876 148.961 92.903 149.297 93.127 149.728C93.3545 150.155 93.4682 150.651 93.4682 151.217C93.4682 151.782 93.3545 152.278 93.127 152.706C92.903 153.133 92.5876 153.467 92.1809 153.709C91.7776 153.946 91.3089 154.065 90.7746 154.065ZM90.7746 152.974C91.1917 152.974 91.5243 152.818 91.7725 152.504C92.0206 152.19 92.1447 151.761 92.1447 151.217C92.1447 150.672 92.0206 150.241 91.7725 149.924C91.5243 149.607 91.1917 149.448 90.7746 149.448C90.3541 149.448 90.0198 149.607 89.7717 149.924C89.5235 150.238 89.3994 150.669 89.3994 151.217C89.3994 151.761 89.5235 152.19 89.7717 152.504C90.0198 152.818 90.3541 152.974 90.7746 152.974ZM95.4641 150.855V153.941H94.1612V148.482H95.4434V149.319C95.8225 148.688 96.3809 148.373 97.1185 148.373C97.6906 148.373 98.1577 148.557 98.5196 148.926C98.8849 149.295 99.0676 149.829 99.0676 150.529V153.941H97.7596V150.736C97.7596 150.336 97.6631 150.033 97.47 149.826C97.277 149.619 97.0065 149.516 96.6583 149.516C96.3171 149.516 96.0328 149.622 95.8053 149.836C95.5778 150.05 95.4641 150.389 95.4641 150.855ZM105.086 148.482V149.531H103.974V152.375C103.974 152.571 104.014 152.707 104.093 152.783C104.173 152.855 104.317 152.892 104.528 152.892H105.086V153.941H104.3C103.745 153.941 103.333 153.829 103.064 153.605C102.799 153.381 102.666 153.035 102.666 152.566V149.531H101.715V148.482H102.666V146.993H103.974V148.482H105.086ZM106.999 150.855V153.941H105.696V146.238H106.999V149.283C107.378 148.676 107.93 148.373 108.653 148.373C109.226 148.373 109.693 148.557 110.055 148.926C110.42 149.295 110.603 149.829 110.603 150.529V153.941H109.295V150.736C109.295 150.336 109.198 150.033 109.005 149.826C108.812 149.619 108.541 149.516 108.193 149.516C107.852 149.516 107.568 149.622 107.34 149.836C107.113 150.05 106.999 150.389 106.999 150.855ZM113.963 154.065C113.419 154.065 112.947 153.943 112.547 153.698C112.147 153.453 111.838 153.117 111.621 152.69C111.408 152.259 111.301 151.768 111.301 151.217C111.301 150.662 111.411 150.17 111.632 149.743C111.856 149.312 112.164 148.974 112.557 148.73C112.95 148.482 113.401 148.358 113.912 148.358C114.435 148.358 114.894 148.478 115.287 148.719C115.68 148.961 115.985 149.295 116.202 149.722C116.419 150.146 116.528 150.638 116.528 151.196V151.553H112.578C112.595 151.997 112.726 152.356 112.971 152.628C113.215 152.9 113.557 153.036 113.994 153.036C114.322 153.036 114.592 152.966 114.806 152.824C115.02 152.68 115.164 152.49 115.24 152.256H116.46C116.391 152.611 116.24 152.924 116.005 153.197C115.775 153.469 115.483 153.683 115.132 153.838C114.78 153.989 114.391 154.065 113.963 154.065ZM112.588 150.653H115.276C115.235 150.264 115.094 149.957 114.853 149.733C114.615 149.505 114.308 149.392 113.932 149.392C113.553 149.392 113.245 149.505 113.007 149.733C112.772 149.957 112.633 150.264 112.588 150.653ZM121.869 156.175C121.148 156.175 120.576 156.02 120.152 155.709C119.728 155.399 119.48 154.979 119.408 154.448H120.685C120.747 154.682 120.883 154.86 121.093 154.98C121.303 155.104 121.562 155.166 121.869 155.166C122.275 155.166 122.591 155.056 122.815 154.836C123.042 154.615 123.156 154.296 123.156 153.879V153.047H123.151C122.975 153.367 122.746 153.603 122.463 153.755C122.181 153.903 121.86 153.977 121.502 153.977C121.026 153.977 120.611 153.858 120.256 153.621C119.901 153.383 119.625 153.055 119.428 152.638C119.235 152.218 119.139 151.734 119.139 151.186C119.139 150.634 119.237 150.146 119.434 149.722C119.63 149.298 119.906 148.968 120.261 148.73C120.616 148.492 121.026 148.373 121.491 148.373C121.846 148.373 122.167 148.449 122.453 148.601C122.742 148.749 122.977 148.98 123.156 149.293H123.161V148.482H124.449V153.802C124.449 154.363 124.337 154.818 124.112 155.166C123.888 155.518 123.582 155.773 123.192 155.932C122.803 156.094 122.362 156.175 121.869 156.175ZM121.807 152.902C122.234 152.902 122.575 152.745 122.83 152.432C123.089 152.114 123.218 151.694 123.218 151.17C123.218 150.646 123.089 150.227 122.83 149.914C122.575 149.597 122.234 149.438 121.807 149.438C121.403 149.438 121.078 149.588 120.83 149.888C120.581 150.188 120.457 150.615 120.457 151.17C120.457 151.728 120.581 152.157 120.83 152.457C121.078 152.754 121.403 152.902 121.807 152.902ZM127.835 154.065C127.297 154.065 126.827 153.946 126.424 153.709C126.02 153.467 125.705 153.133 125.478 152.706C125.254 152.278 125.142 151.782 125.142 151.217C125.142 150.651 125.254 150.155 125.478 149.728C125.705 149.297 126.02 148.961 126.424 148.719C126.827 148.478 127.297 148.358 127.835 148.358C128.369 148.358 128.838 148.478 129.241 148.719C129.648 148.961 129.963 149.297 130.187 149.728C130.415 150.155 130.529 150.651 130.529 151.217C130.529 151.782 130.415 152.278 130.187 152.706C129.963 153.133 129.648 153.467 129.241 153.709C128.838 153.946 128.369 154.065 127.835 154.065ZM127.835 152.974C128.252 152.974 128.585 152.818 128.833 152.504C129.081 152.19 129.205 151.761 129.205 151.217C129.205 150.672 129.081 150.241 128.833 149.924C128.585 149.607 128.252 149.448 127.835 149.448C127.415 149.448 127.08 149.607 126.832 149.924C126.584 150.238 126.46 150.669 126.46 151.217C126.46 151.761 126.584 152.19 126.832 152.504C127.08 152.818 127.415 152.974 127.835 152.974Z" fill="#0D0D12"/>
</g>
<defs>
<pattern id="pattern0" patternContentUnits="objectBoundingBox" width="1" height="1">
<use xlink:href="#image0_3_2" transform="matrix(0.00120411 0 0 0.000976562 -0.116505 0)"/>
</pattern>
<filter id="filter0_dd_3_2" x="93.4504" y="85.7061" width="202.878" height="153.188" filterUnits="userSpaceOnUse" color-interpolation-filters="sRGB">
<feFlood flood-opacity="0" result="BackgroundImageFix"/>
<feColorMatrix in="SourceAlpha" type="matrix" values="0 0 0 0 0 0 0 0 0 0 0 0 0 0 0 0 0 0 127 0" result="hardAlpha"/>
<feOffset dy="3"/>
<feGaussianBlur stdDeviation="1.65"/>
<feComposite in2="hardAlpha" operator="out"/>
<feColorMatrix type="matrix" values="0 0 0 0 0 0 0 0 0 0 0 0 0 0 0 0 0 0 0.02 0"/>
<feBlend mode="normal" in2="BackgroundImageFix" result="effect1_dropShadow_3_2"/>
<feColorMatrix in="SourceAlpha" type="matrix" values="0 0 0 0 0 0 0 0 0 0 0 0 0 0 0 0 0 0 127 0" result="hardAlpha"/>
<feOffset dy="2.19976"/>
<feGaussianBlur stdDeviation="1.83313"/>
<feComposite in2="hardAlpha" operator="out"/>
<feColorMatrix type="matrix" values="0 0 0 0 0.695833 0 0 0 0 0.695833 0 0 0 0 0.695833 0 0 0 0.08 0"/>
<feBlend mode="normal" in2="effect1_dropShadow_3_2" result="effect2_dropShadow_3_2"/>
<feBlend mode="normal" in="SourceGraphic" in2="effect2_dropShadow_3_2" result="shape"/>
</filter>
<pattern id="pattern1" patternContentUnits="objectBoundingBox" width="1" height="1">
<use xlink:href="#image1_3_2" transform="matrix(0.00149148 0 0 0.000976562 -0.263636 0)"/>
</pattern>
<filter id="filter1_f_3_2" x="225.452" y="140.123" width="43.1265" height="18.4798" filterUnits="userSpaceOnUse" color-interpolation-filters="sRGB">
<feFlood flood-opacity="0" result="BackgroundImageFix"/>
<feBlend mode="normal" in="SourceGraphic" in2="BackgroundImageFix" result="shape"/>
<feGaussianBlur stdDeviation="2.08149" result="effect1_foregroundBlur_3_2"/>
</filter>
<filter id="filter2_dddddd_3_2" x="179.885" y="44.8845" width="284.055" height="210.231" filterUnits="userSpaceOnUse" color-interpolation-filters="sRGB">
<feFlood flood-opacity="0" result="BackgroundImageFix"/>
<feColorMatrix in="SourceAlpha" type="matrix" values="0 0 0 0 0 0 0 0 0 0 0 0 0 0 0 0 0 0 127 0" result="hardAlpha"/>
<feOffset dy="2.76726"/>
<feGaussianBlur stdDeviation="1.1069"/>
<feColorMatrix type="matrix" values="0 0 0 0 0 0 0 0 0 0 0 0 0 0 0 0 0 0 0.0281146 0"/>
<feBlend mode="normal" in2="BackgroundImageFix" result="effect1_dropShadow_3_2"/>
<feColorMatrix in="SourceAlpha" type="matrix" values="0 0 0 0 0 0 0 0 0 0 0 0 0 0 0 0 0 0 127 0" result="hardAlpha"/>
<feOffset dy="6.6501"/>
<feGaussianBlur stdDeviation="2.66004"/>
<feColorMatrix type="matrix" values="0 0 0 0 0 0 0 0 0 0 0 0 0 0 0 0 0 0 0.0403893 0"/>
<feBlend mode="normal" in2="effect1_dropShadow_3_2" result="effect2_dropShadow_3_2"/>
<feColorMatrix in="SourceAlpha" type="matrix" values="0 0 0 0 0 0 0 0 0 0 0 0 0 0 0 0 0 0 127 0" result="hardAlpha"/>
<feOffset dy="12.5216"/>
<feGaussianBlur stdDeviation="5.00862"/>
<feColorMatrix type="matrix" values="0 0 0 0 0 0 0 0 0 0 0 0 0 0 0 0 0 0 0.05 0"/>
<feBlend mode="normal" in2="effect2_dropShadow_3_2" result="effect3_dropShadow_3_2"/>
<feColorMatrix in="SourceAlpha" type="matrix" values="0 0 0 0 0 0 0 0 0 0 0 0 0 0 0 0 0 0 127 0" result="hardAlpha"/>
<feOffset dy="22.3363"/>
<feGaussianBlur stdDeviation="8.93452"/>
<feColorMatrix type="matrix" values="0 0 0 0 0 0 0 0 0 0 0 0 0 0 0 0 0 0 0.0596107 0"/>
<feBlend mode="normal" in2="effect3_dropShadow_3_2" result="effect4_dropShadow_3_2"/>
<feColorMatrix in="SourceAlpha" type="matrix" values="0 0 0 0 0 0 0 0 0 0 0 0 0 0 0 0 0 0 127 0" result="hardAlpha"/>
<feOffset dy="41.7776"/>
<feGaussianBlur stdDeviation="16.711"/>
<feColorMatrix type="matrix" values="0 0 0 0 0 0 0 0 0 0 0 0 0 0 0 0 0 0 0.0718854 0"/>
<feBlend mode="normal" in2="effect4_dropShadow_3_2" result="effect5_dropShadow_3_2"/>
<feColorMatrix in="SourceAlpha" type="matrix" values="0 0 0 0 0 0 0 0 0 0 0 0 0 0 0 0 0 0 127 0" result="hardAlpha"/>
<feOffset dy="100"/>
<feGaussianBlur stdDeviation="40"/>
<feColorMatrix type="matrix" values="0 0 0 0 0 0 0 0 0 0 0 0 0 0 0 0 0 0 0.1 0"/>
<feBlend mode="normal" in2="effect5_dropShadow_3_2" result="effect6_dropShadow_3_2"/>
<feBlend mode="normal" in="SourceGraphic" in2="effect6_dropShadow_3_2" result="shape"/>
</filter>
<filter id="filter3_dddddd_3_2" x="-49.1155" y="135.885" width="270.937" height="210.113" filterUnits="userSpaceOnUse" color-interpolation-filters="sRGB">
<feFlood flood-opacity="0" result="BackgroundImageFix"/>
<feColorMatrix in="SourceAlpha" type="matrix" values="0 0 0 0 0 0 0 0 0 0 0 0 0 0 0 0 0 0 127 0" result="hardAlpha"/>
<feOffset dy="2.76726"/>
<feGaussianBlur stdDeviation="1.1069"/>
<feColorMatrix type="matrix" values="0 0 0 0 0 0 0 0 0 0 0 0 0 0 0 0 0 0 0.0281146 0"/>
<feBlend mode="normal" in2="BackgroundImageFix" result="effect1_dropShadow_3_2"/>
<feColorMatrix in="SourceAlpha" type="matrix" values="0 0 0 0 0 0 0 0 0 0 0 0 0 0 0 0 0 0 127 0" result="hardAlpha"/>
<feOffset dy="6.6501"/>
<feGaussianBlur stdDeviation="2.66004"/>
<feColorMatrix type="matrix" values="0 0 0 0 0 0 0 0 0 0 0 0 0 0 0 0 0 0 0.0403893 0"/>
<feBlend mode="normal" in2="effect1_dropShadow_3_2" result="effect2_dropShadow_3_2"/>
<feColorMatrix in="SourceAlpha" type="matrix" values="0 0 0 0 0 0 0 0 0 0 0 0 0 0 0 0 0 0 127 0" result="hardAlpha"/>
<feOffset dy="12.5216"/>
<feGaussianBlur stdDeviation="5.00862"/>
<feColorMatrix type="matrix" values="0 0 0 0 0 0 0 0 0 0 0 0 0 0 0 0 0 0 0.05 0"/>
<feBlend mode="normal" in2="effect2_dropShadow_3_2" result="effect3_dropShadow_3_2"/>
<feColorMatrix in="SourceAlpha" type="matrix" values="0 0 0 0 0 0 0 0 0 0 0 0 0 0 0 0 0 0 127 0" result="hardAlpha"/>
<feOffset dy="22.3363"/>
<feGaussianBlur stdDeviation="8.93452"/>
<feColorMatrix type="matrix" values="0 0 0 0 0 0 0 0 0 0 0 0 0 0 0 0 0 0 0.0596107 0"/>
<feBlend mode="normal" in2="effect3_dropShadow_3_2" result="effect4_dropShadow_3_2"/>
<feColorMatrix in="SourceAlpha" type="matrix" values="0 0 0 0 0 0 0 0 0 0 0 0 0 0 0 0 0 0 127 0" result="hardAlpha"/>
<feOffset dy="41.7776"/>
<feGaussianBlur stdDeviation="16.711"/>
<feColorMatrix type="matrix" values="0 0 0 0 0 0 0 0 0 0 0 0 0 0 0 0 0 0 0.0718854 0"/>
<feBlend mode="normal" in2="effect4_dropShadow_3_2" result="effect5_dropShadow_3_2"/>
<feColorMatrix in="SourceAlpha" type="matrix" values="0 0 0 0 0 0 0 0 0 0 0 0 0 0 0 0 0 0 127 0" result="hardAlpha"/>
<feOffset dy="100"/>
<feGaussianBlur stdDeviation="40"/>
<feColorMatrix type="matrix" values="0 0 0 0 0 0 0 0 0 0 0 0 0 0 0 0 0 0 0.1 0"/>
<feBlend mode="normal" in2="effect5_dropShadow_3_2" result="effect6_dropShadow_3_2"/>
<feBlend mode="normal" in="SourceGraphic" in2="effect6_dropShadow_3_2" result="shape"/>
</filter>
<linearGradient id="paint0_linear_3_2" x1="195.197" y1="9.51606e-09" x2="195" y2="264" gradientUnits="userSpaceOnUse">
<stop stop-color="white" stop-opacity="0.56"/>
<stop offset="1" stop-color="white" stop-opacity="0"/>
</linearGradient>
<linearGradient id="paint1_linear_3_2" x1="247.226" y1="132.175" x2="247.762" y2="199.216" gradientUnits="userSpaceOnUse">
<stop stop-color="#6648D5"/>
<stop offset="0.250772" stop-color="#6F43C7"/>
<stop offset="0.527323" stop-color="#A368E4"/>
<stop offset="0.662431" stop-color="#D38AFF"/>
<stop offset="0.913834" stop-color="#FFCAA3"/>
</linearGradient>
<clipPath id="clip0_3_2">
<rect width="7.33252" height="7.33252" fill="white" transform="translate(131.448 70.7473)"/>
</clipPath>
<clipPath id="clip1_3_2">
<rect width="14" height="14" fill="white" transform="translate(39.8235 143.941)"/>
</clipPath>
</defs>
</svg>