<svg width="20" height="20" viewBox="0 0 20 20" fill="none" xmlns="http://www.w3.org/2000/svg">
<path d="M15.7629 16.91L15.4129 16.031C15.2359 15.585 14.9609 15.185 14.6089 14.859L14.5449 14.8C13.9909 14.286 13.2629 14 12.5069 14H7.49296C6.73696 14 6.00896 14.286 5.45396 14.799L5.38996 14.859C5.03796 15.185 4.76396 15.585 4.58596 16.031L4.23596 16.91" stroke="#818898" stroke-width="1.5" stroke-linecap="round" stroke-linejoin="round"/>
<path d="M12.4749 5.44725C13.8417 6.81409 13.8417 9.0302 12.4749 10.397C11.108 11.7638 8.892 11.7638 7.52513 10.397C6.15829 9.0302 6.15829 6.81409 7.52513 5.44725C8.892 4.08041 11.108 4.08041 12.4749 5.44725Z" stroke="#818898" stroke-width="1.5" stroke-linecap="round" stroke-linejoin="round"/>
<path d="M16.3639 3.63604C19.8786 7.15076 19.8786 12.8492 16.3639 16.3639C12.8492 19.8787 7.15074 19.8787 3.63604 16.3639C0.12132 12.8492 0.12132 7.15074 3.63604 3.63604C7.15076 0.12132 12.8492 0.12132 16.3639 3.63604Z" stroke="#818898" stroke-width="1.5" stroke-linecap="round" stroke-linejoin="round"/>
</svg>
