<svg width="18" height="20" viewBox="0 0 18 20" fill="none" xmlns="http://www.w3.org/2000/svg">
<path d="M6.50903 16.0024V16.5147C6.50903 17.1751 6.77155 17.8085 7.23877 18.2754C7.70597 18.7422 8.33957 19.0042 9.00007 19.0037C9.66067 19.004 10.2943 18.7417 10.7615 18.2747C11.2287 17.8077 11.4911 17.1742 11.4911 16.5137V16.0024" stroke="#212121" stroke-width="1.5" stroke-linecap="round" stroke-linejoin="round"/>
<path fill-rule="evenodd" clip-rule="evenodd" d="M14.9495 16.0028C16.0838 16.0028 17.0033 15.0833 17.0033 13.949C17.0029 13.3728 16.7741 12.8202 16.3671 12.4123L15.0025 11.0488V6.99908C15.0025 3.68399 12.3151 0.996582 9.00003 0.996582C5.68494 0.996582 2.99753 3.68399 2.99753 6.99908V11.0488L1.63296 12.4123C1.22595 12.8202 0.997164 13.3728 0.996704 13.949C0.996704 14.4937 1.21309 15.0161 1.59826 15.4013C1.98343 15.7864 2.50584 16.0028 3.05055 16.0028H14.9495Z" stroke="#212121" stroke-width="1.5" stroke-linecap="round" stroke-linejoin="round"/>
</svg>
