<svg width="22" height="22" viewBox="0 0 22 22" fill="none" xmlns="http://www.w3.org/2000/svg">
<path d="M10.9987 1.33301C5.66003 1.33301 1.33203 5.66101 1.33203 10.9997C1.33203 12.7583 1.80936 14.4023 2.62936 15.8223C3.2027 16.897 2.5587 19.4383 1.33203 20.6663C2.9987 20.757 5.1947 20.0037 6.17603 19.369C6.82803 19.745 7.86137 20.2437 9.2147 20.4997C9.79203 20.609 10.3894 20.6663 10.9987 20.6663C16.3374 20.6663 20.6654 16.3383 20.6654 10.9997C20.6654 5.66101 16.3374 1.33301 10.9987 1.33301Z" stroke="#F0F0FF" stroke-width="2" stroke-linecap="round" stroke-linejoin="round"/>
<path opacity="0.75" d="M10.9974 12.3327C10.2614 12.3327 9.66406 11.734 9.66406 10.9993C9.66406 10.2647 10.2614 9.66602 10.9974 9.66602C11.7334 9.66602 12.3307 10.2647 12.3307 10.9993C12.3307 11.734 11.7334 12.3327 10.9974 12.3327Z" fill="#F0F0FF"/>
<path d="M6.33333 12.3327C5.59733 12.3327 5 11.734 5 10.9993C5 10.2647 5.59733 9.66602 6.33333 9.66602C7.06933 9.66602 7.66667 10.2647 7.66667 10.9993C7.66667 11.734 7.06933 12.3327 6.33333 12.3327Z" fill="#F0F0FF"/>
<path opacity="0.5" d="M15.6654 12.3327C14.9294 12.3327 14.332 11.734 14.332 10.9993C14.332 10.2647 14.9294 9.66602 15.6654 9.66602C16.4014 9.66602 16.9987 10.2647 16.9987 10.9993C16.9987 11.734 16.4014 12.3327 15.6654 12.3327Z" fill="#F0F0FF"/>
</svg>
