<svg width="21" height="19" viewBox="0 0 21 19" fill="none" xmlns="http://www.w3.org/2000/svg">
<path fill-rule="evenodd" clip-rule="evenodd" d="M12.6142 17.8125C12.4341 17.9926 12.1899 18.0939 11.9352 18.0939H10V16.1587C10 15.904 10.1013 15.6597 10.2814 15.4797L16.7823 8.97395C17.0923 8.66395 17.5128 8.48975 17.9512 8.48975C18.3895 8.48975 18.81 8.66395 19.12 8.97395C19.4302 9.28385 19.6045 9.70435 19.6045 10.1427C19.6045 10.5812 19.4302 11.0017 19.12 11.3115L12.6142 17.8125Z" stroke="#818898" stroke-width="1.5" stroke-linecap="round" stroke-linejoin="round"/>
<path d="M14.3833 11.3799L16.7171 13.7137" stroke="#818898" stroke-width="1.5" stroke-linecap="round" stroke-linejoin="round"/>
<path d="M18.3728 12.0581L19.2371 12.9224C19.6921 13.3783 19.6921 14.1165 19.2371 14.5724L17.6611 16.1484" stroke="#818898" stroke-width="1.5" stroke-linecap="round" stroke-linejoin="round"/>
<path d="M5.198 6.56885H10.9604" stroke="#818898" stroke-width="1.5" stroke-linecap="round" stroke-linejoin="round"/>
<path d="M5.198 10.4106H9.0396" stroke="#818898" stroke-width="1.5" stroke-linecap="round" stroke-linejoin="round"/>
<path d="M7.11884 18.0938H4.23765C2.6464 18.0938 1.35645 16.8039 1.35645 15.2126V3.68784C1.35645 2.0966 2.6464 0.806641 4.23765 0.806641H15.7624C17.3537 0.806641 18.6436 2.0966 18.6436 3.68784V5.60864" stroke="#818898" stroke-width="1.5" stroke-linecap="round" stroke-linejoin="round"/>
</svg>
