<svg width="16" height="16" viewBox="0 0 16 16" fill="none" xmlns="http://www.w3.org/2000/svg">
<path fill-rule="evenodd" clip-rule="evenodd" d="M6.5 6.51001C6.91421 6.51001 7.25 6.8458 7.25 7.26001V11.01C7.25 11.4242 6.91421 11.76 6.5 11.76C6.08579 11.76 5.75 11.4242 5.75 11.01V7.26001C5.75 6.8458 6.08579 6.51001 6.5 6.51001Z" fill="#EA5B5B"/>
<path fill-rule="evenodd" clip-rule="evenodd" d="M9.5 6.51001C9.91421 6.51001 10.25 6.8458 10.25 7.26001V11.01C10.25 11.4242 9.91421 11.76 9.5 11.76C9.08579 11.76 8.75 11.4242 8.75 11.01V7.26001C8.75 6.8458 9.08579 6.51001 9.5 6.51001Z" fill="#EA5B5B"/>
<path fill-rule="evenodd" clip-rule="evenodd" d="M6.5 0.51001C5.25736 0.51001 4.25 1.51737 4.25 2.76001H2H1.25C0.835786 2.76001 0.5 3.0958 0.5 3.51001C0.5 3.92422 0.835786 4.26001 1.25 4.26001H2V13.26C2 14.5026 3.00736 15.51 4.25 15.51H11.75C12.9926 15.51 14 14.5026 14 13.26V4.26001H14.75C15.1642 4.26001 15.5 3.92422 15.5 3.51001C15.5 3.0958 15.1642 2.76001 14.75 2.76001H14H11.75C11.75 1.51737 10.7426 0.51001 9.5 0.51001H6.5ZM10.25 2.76001C10.25 2.3458 9.91421 2.01001 9.5 2.01001H6.5C6.08579 2.01001 5.75 2.3458 5.75 2.76001H10.25ZM4.25 4.26001H3.5V13.26C3.5 13.6742 3.83579 14.01 4.25 14.01H11.75C12.1642 14.01 12.5 13.6742 12.5 13.26V4.26001H11.75H4.25Z" fill="#EA5B5B"/>
</svg>
