<svg width="16" height="12" viewBox="0 0 16 12" fill="none" xmlns="http://www.w3.org/2000/svg">
<path d="M1.0875 7.14203C0.6375 6.45903 0.6375 5.56003 1.0875 4.87703C2.1055 3.33403 4.3495 0.759033 7.9995 0.759033C11.6495 0.759033 13.8945 3.33303 14.9115 4.87703C15.3615 5.56003 15.3615 6.45903 14.9115 7.14203C13.8935 8.68503 11.6495 11.26 7.9995 11.26C4.3495 11.26 2.1045 8.68603 1.0875 7.14203Z" stroke="#212121" stroke-width="1.5" stroke-linecap="round" stroke-linejoin="round"/>
<path d="M8 8.76001C9.51878 8.76001 10.75 7.52879 10.75 6.01001C10.75 4.49123 9.51878 3.26001 8 3.26001C6.48122 3.26001 5.25 4.49123 5.25 6.01001C5.25 7.52879 6.48122 8.76001 8 8.76001Z" stroke="#212121" stroke-width="1.5" stroke-linecap="round" stroke-linejoin="round"/>
</svg>
