<svg width="18" height="18" viewBox="0 0 18 18" fill="none" xmlns="http://www.w3.org/2000/svg">
<path d="M9 16.5C13.1421 16.5 16.5 13.1421 16.5 9C16.5 4.85786 13.1421 1.5 9 1.5C4.85786 1.5 1.5 4.85786 1.5 9C1.5 13.1421 4.85786 16.5 9 16.5Z" stroke="#0D0D12" stroke-width="1.5" stroke-linecap="round" stroke-linejoin="round"/>
<path d="M8.99998 11.9168C10.6108 11.9168 11.9166 10.611 11.9166 9.00016C11.9166 7.38933 10.6108 6.0835 8.99998 6.0835C7.38915 6.0835 6.08331 7.38933 6.08331 9.00016C6.08331 10.611 7.38915 11.9168 8.99998 11.9168Z" stroke="#0D0D12" stroke-width="1.5" stroke-linecap="round" stroke-linejoin="round"/>
<path d="M11.0623 6.93751L14.3025 3.69727" stroke="#0D0D12" stroke-width="1.5" stroke-linecap="round" stroke-linejoin="round"/>
<path d="M3.69751 14.3026L6.93762 11.0625" stroke="#0D0D12" stroke-width="1.5" stroke-linecap="round" stroke-linejoin="round"/>
<path d="M6.93775 6.93751L3.69751 3.69727" stroke="#0D0D12" stroke-width="1.5" stroke-linecap="round" stroke-linejoin="round"/>
<path d="M14.3025 14.3026L11.0624 11.0625" stroke="#0D0D12" stroke-width="1.5" stroke-linecap="round" stroke-linejoin="round"/>
</svg>
