<svg width="16" height="14" viewBox="0 0 16 14" fill="none" xmlns="http://www.w3.org/2000/svg">
<path d="M3 12.7499L8.836 6.91387C9.617 6.13287 10.883 6.13287 11.664 6.91387L15.25 10.4999" stroke="#212121" stroke-width="1.5" stroke-linecap="round" stroke-linejoin="round"/>
<path d="M2.75 12.75L13.25 12.75C14.3546 12.75 15.25 11.8546 15.25 10.75L15.25 3.25C15.25 2.14543 14.3546 1.25 13.25 1.25L2.75 1.25C1.64543 1.25 0.75 2.14543 0.75 3.25L0.75 10.75C0.75 11.8546 1.64543 12.75 2.75 12.75Z" stroke="#212121" stroke-width="1.5" stroke-linecap="round" stroke-linejoin="round"/>
<path d="M4.75 6.5C5.44036 6.5 6 5.94036 6 5.25C6 4.55964 5.44036 4 4.75 4C4.05964 4 3.5 4.55964 3.5 5.25C3.5 5.94036 4.05964 6.5 4.75 6.5Z" fill="#212121"/>
</svg>
