<svg width="12" height="12" viewBox="0 0 12 12" fill="none" xmlns="http://www.w3.org/2000/svg">
<circle cx="5.72928" cy="5.78214" r="5.38346" fill="#AFAFAF"/>
<path fill-rule="evenodd" clip-rule="evenodd" d="M6.60725 3.92632C6.69137 3.77912 6.73869 3.60826 6.73869 3.42688C6.73869 2.86961 6.28656 2.41748 5.72929 2.41748C5.17202 2.41748 4.71989 2.86961 4.71989 3.42688C4.71989 3.98415 5.17202 4.43628 5.72929 4.43628C6.10518 4.43628 6.43376 4.23124 6.60725 3.92632ZM5.05636 5.10921H5.39282H6.06575C6.43771 5.10921 6.73869 5.41019 6.73869 5.78214V6.45507V9.1468C6.73869 9.51876 6.43771 9.81974 6.06575 9.81974C5.6938 9.81974 5.39282 9.51876 5.39282 9.1468V6.95977C5.39282 6.68114 5.16676 6.45507 4.88812 6.45507C4.60949 6.45507 4.38342 6.22901 4.38342 5.95038V5.78214C4.38342 5.54556 4.50565 5.33659 4.68966 5.21698C4.79481 5.14864 4.92098 5.10921 5.05636 5.10921Z" fill="white"/>
</svg>
