<svg width="12" height="4" viewBox="0 0 12 4" fill="none" xmlns="http://www.w3.org/2000/svg">
<path d="M6 3.56396C6.82843 3.56396 7.5 2.89239 7.5 2.06396C7.5 1.23554 6.82843 0.563965 6 0.563965C5.17157 0.563965 4.5 1.23554 4.5 2.06396C4.5 2.89239 5.17157 3.56396 6 3.56396Z" fill="#0D0D12"/>
<path d="M1.5 3.56396C2.32843 3.56396 3 2.89239 3 2.06396C3 1.23554 2.32843 0.563965 1.5 0.563965C0.671573 0.563965 0 1.23554 0 2.06396C0 2.89239 0.671573 3.56396 1.5 3.56396Z" fill="#0D0D12"/>
<path d="M10.5 3.56396C11.3284 3.56396 12 2.89239 12 2.06396C12 1.23554 11.3284 0.563965 10.5 0.563965C9.67157 0.563965 9 1.23554 9 2.06396C9 2.89239 9.67157 3.56396 10.5 3.56396Z" fill="#0D0D12"/>
</svg>
