<svg width="21" height="20" viewBox="0 0 21 20" fill="none" xmlns="http://www.w3.org/2000/svg">
<path d="M4.08331 3.33301H9.08331M12.4166 3.33301H17.4166M5.74998 6.66634H7.41665C8.33712 6.66634 9.08331 7.41253 9.08331 8.33301V14.9997C9.08331 15.9201 8.33712 16.6663 7.41665 16.6663H5.74998C4.82951 16.6663 4.08331 15.9201 4.08331 14.9997V8.33301C4.08331 7.41253 4.82951 6.66634 5.74998 6.66634ZM14.0833 6.66634H15.75C16.6705 6.66634 17.4166 7.41253 17.4166 8.33301V9.99967C17.4166 10.9201 16.6705 11.6663 15.75 11.6663H14.0833C13.1628 11.6663 12.4166 10.9201 12.4166 9.99967V8.33301C12.4166 7.41253 13.1628 6.66634 14.0833 6.66634Z" stroke="#A4ACB9" stroke-width="1.5" stroke-linecap="round" stroke-linejoin="round"/>
</svg>
