<svg width="18" height="18" viewBox="0 0 18 18" fill="none" xmlns="http://www.w3.org/2000/svg">
<path d="M9.00001 17.0554C13.449 17.0554 17.0556 13.4489 17.0556 8.99989C17.0556 4.55093 13.449 0.944336 9.00001 0.944336C4.55105 0.944336 0.944458 4.55093 0.944458 8.99989C0.944458 13.4489 4.55105 17.0554 9.00001 17.0554Z" stroke="#212121" stroke-width="1.66667" stroke-linecap="round" stroke-linejoin="round"/>
<path d="M11.0189 6.72326C10.5811 5.68659 9.70444 5.45215 9.04222 5.45215C8.42666 5.45215 6.80888 5.77993 6.95888 7.33215C7.06333 8.42215 8.0911 8.8277 8.98888 8.9877C9.88666 9.1477 11.19 9.48993 11.2222 10.8044C11.2489 11.9155 10.25 12.6744 9.04222 12.6744C7.88888 12.6744 7.08666 12.2255 6.77777 11.211" stroke="#212121" stroke-width="1.66667" stroke-linecap="round" stroke-linejoin="round"/>
<path d="M9 4.27783V5.45228" stroke="#212121" stroke-width="1.66667" stroke-linecap="round" stroke-linejoin="round"/>
<path d="M9 12.6743V13.7221" stroke="#212121" stroke-width="1.66667" stroke-linecap="round" stroke-linejoin="round"/>
</svg>
