<svg width="18" height="18" viewBox="0 0 18 18" fill="none" xmlns="http://www.w3.org/2000/svg">
<path d="M15.6667 6.5V4C15.6667 2.61929 14.5474 1.5 13.1667 1.5H4C2.61929 1.5 1.5 2.61929 1.5 4V14C1.5 15.3807 2.61929 16.5 4 16.5H6.5" stroke="#0D0D12" stroke-width="1.5" stroke-linecap="round" stroke-linejoin="round"/>
<path d="M4.83331 5.6665H12.3333" stroke="#0D0D12" stroke-width="1.5" stroke-linecap="round" stroke-linejoin="round"/>
<path d="M4.83331 9H6.49998" stroke="#0D0D12" stroke-width="1.5" stroke-linecap="round" stroke-linejoin="round"/>
<path d="M4.83331 12.3335H6.49998" stroke="#0D0D12" stroke-width="1.5" stroke-linecap="round" stroke-linejoin="round"/>
<path fill-rule="evenodd" clip-rule="evenodd" d="M12.3087 16.4563C10.3848 16.0715 9 14.3823 9 12.4203V11.0833C9 9.93275 9.93275 9 11.0833 9H14.4167C15.5672 9 16.5 9.93275 16.5 11.0833V12.4203C16.5 14.3823 15.1152 16.0715 13.1914 16.4563C12.9002 16.5146 12.6 16.5146 12.3087 16.4563Z" stroke="#0D0D12" stroke-width="1.5" stroke-linecap="round" stroke-linejoin="round"/>
<path d="M11.5782 12.5625H13.9219" stroke="#0D0D12" stroke-width="1.5" stroke-linecap="round" stroke-linejoin="round"/>
<path d="M12.75 13.7344V11.3906" stroke="#0D0D12" stroke-width="1.5" stroke-linecap="round" stroke-linejoin="round"/>
</svg>
