<svg width="18" height="18" viewBox="0 0 18 18" fill="none" xmlns="http://www.w3.org/2000/svg">
<path d="M4.27001 1.76904L3.2189 1.41904L2.86779 0.366816C2.75446 0.0268164 2.19113 0.0268164 2.07779 0.366816L1.72668 1.41904L0.67557 1.76904C0.50557 1.82571 0.390015 1.98459 0.390015 2.16459C0.390015 2.34459 0.50557 2.50348 0.67557 2.56015L1.72668 2.91015L2.07779 3.96237C2.13446 4.13237 2.29335 4.24682 2.47224 4.24682C2.65113 4.24682 2.81113 4.13126 2.86668 3.96237L3.21779 2.91015L4.2689 2.56015C4.4389 2.50348 4.55446 2.34459 4.55446 2.16459C4.55446 1.98459 4.44001 1.82571 4.27001 1.76904Z" fill="#0D0D12"/>
<path d="M13.9656 9.80927L15.6044 8.21171C16.1979 7.6331 15.8703 6.62505 15.0499 6.50601L12.0094 6.06479C11.6835 6.01751 11.4019 5.81288 11.2562 5.51763L9.8968 2.76242C9.53002 2.01904 8.47 2.01904 8.10323 2.76242L6.74383 5.51763C6.59815 5.81288 6.31648 6.01751 5.99065 6.06479L2.94999 6.50602C2.12969 6.62506 1.80202 7.63308 2.39553 8.2117L4.5958 10.3567C4.83146 10.5865 4.93899 10.9175 4.88333 11.2419L4.36378 14.27C4.22361 15.0869 5.08101 15.7099 5.81467 15.3242L8.8489 13.7293" stroke="#0D0D12" stroke-width="1.5" stroke-linecap="round" stroke-linejoin="round"/>
<path d="M15.8423 13.9889L14.4389 13.5212L13.9711 12.1178C13.8189 11.6645 13.0689 11.6645 12.9167 12.1178L12.4489 13.5212L11.0456 13.9889C10.8189 14.0645 10.6656 14.2767 10.6656 14.5156C10.6656 14.7545 10.8189 14.9667 11.0456 15.0423L12.4489 15.5101L12.9167 16.9134C12.9923 17.1401 13.2056 17.2934 13.4445 17.2934C13.6834 17.2934 13.8956 17.1401 13.9723 16.9134L14.44 15.5101L15.8434 15.0423C16.07 14.9667 16.2234 14.7545 16.2234 14.5156C16.2234 14.2767 16.07 14.0645 15.8434 13.9889H15.8423Z" fill="#0D0D12"/>
<path d="M14.8333 3.4445C15.2936 3.4445 15.6667 3.0714 15.6667 2.61117C15.6667 2.15093 15.2936 1.77783 14.8333 1.77783C14.3731 1.77783 14 2.15093 14 2.61117C14 3.0714 14.3731 3.4445 14.8333 3.4445Z" fill="#0D0D12"/>
</svg>
