<svg width="18" height="18" viewBox="0 0 18 18" fill="none" xmlns="http://www.w3.org/2000/svg">
<path d="M9 11.5C10.3807 11.5 11.5 10.3807 11.5 9C11.5 7.61929 10.3807 6.5 9 6.5C7.61929 6.5 6.5 7.61929 6.5 9C6.5 10.3807 7.61929 11.5 9 11.5Z" stroke="#0D0D12" stroke-width="1.66667" stroke-linecap="round" stroke-linejoin="round"/>
<path d="M17.0555 9.39447V8.60558C17.0555 8.03892 16.63 7.56336 16.0666 7.50114L14.8511 7.36558L14.2922 6.01669L15.0566 5.06225C15.41 4.62003 15.3755 3.98336 14.9744 3.58225L14.4166 3.02447C14.0166 2.62447 13.3789 2.58892 12.9366 2.94225L11.9822 3.70669L10.6333 3.1478L10.4978 1.93225C10.4355 1.37003 9.95998 0.943359 9.39331 0.943359H8.60442C8.03776 0.943359 7.5622 1.36891 7.49998 1.93225L7.36442 3.1478L6.01553 3.70669L5.06109 2.94336C4.61887 2.59003 3.9822 2.62447 3.58109 3.02558L3.02331 3.58336C2.62331 3.98336 2.58776 4.62114 2.94109 5.06336L3.70553 6.0178L3.14664 7.36669L1.93109 7.50225C1.36887 7.56447 0.9422 8.04003 0.9422 8.60669V9.39558C0.9422 9.96225 1.36776 10.4378 1.93109 10.5L3.14664 10.6356L3.70553 11.9845L2.9422 12.9389C2.58887 13.3811 2.62331 14.0189 3.02442 14.4189L3.5822 14.9767C3.9822 15.3767 4.61998 15.4122 5.0622 15.0589L6.01664 14.2945L7.36553 14.8534L7.50109 16.0689C7.56331 16.6311 8.03887 17.0578 8.60553 17.0578H9.39442C9.96109 17.0578 10.4366 16.6323 10.4989 16.0689L10.6344 14.8534L11.9833 14.2945L12.9378 15.0589C13.38 15.4122 14.0166 15.3778 14.4178 14.9767L14.9755 14.4189C15.3755 14.0189 15.4111 13.3811 15.0578 12.9389L14.2944 11.9845L14.8533 10.6356L16.0689 10.5C16.6311 10.4378 17.0578 9.96225 17.0578 9.39558L17.0555 9.39447Z" stroke="#0D0D12" stroke-width="1.66667" stroke-linecap="round" stroke-linejoin="round"/>
</svg>
