<svg width="136" height="143" viewBox="0 0 136 143" fill="none" xmlns="http://www.w3.org/2000/svg">
<path d="M67.401 127C100.207 127 126.802 100.585 126.802 68C126.802 35.415 100.207 9 67.401 9C34.595 9 8 35.415 8 68C8 100.585 34.595 127 67.401 127Z" fill="#EAEEF9"/>
<g filter="url(#filter0_d_172_5297)">
<path d="M112.931 60.323V96.396C112.931 103.863 106.79 109.963 99.272 109.963H35.848C28.33 109.963 22.294 103.968 22.188 96.5011C22.188 96.396 22.188 96.396 22.188 96.291V60.323C22.188 60.217 22.188 60.217 22.188 60.112C22.188 59.902 22.188 59.692 22.294 59.481C22.4 59.166 22.506 58.955 22.612 58.64L39.659 26.1431C40.295 24.8811 41.565 24.144 42.942 24.144H92.284C93.66 24.144 94.931 24.8811 95.566 26.1431L112.614 58.64C112.719 58.85 112.825 59.166 112.931 59.481C112.931 59.692 112.931 60.007 112.931 60.323Z" fill="#D3DBEB"/>
</g>
<g filter="url(#filter1_d_172_5297)">
<path d="M80.5311 60.6381H54.8011C53.7421 60.6381 52.7891 59.7971 52.7891 58.6401V23.5131C52.7891 22.4621 53.6361 21.5151 54.8011 21.5151H80.425C81.484 21.5151 82.4371 22.3561 82.4371 23.5131V58.6401C82.4371 59.6921 81.5901 60.6381 80.5311 60.6381Z" fill="#F5F8FF"/>
</g>
<g filter="url(#filter2_d_172_5297)">
<path d="M89.001 68.9462H46.3301C44.9541 68.9462 43.7891 67.7902 43.7891 66.4222V32.3483C43.7891 30.9803 44.9541 29.8232 46.3301 29.8232H89.001C90.378 29.8232 91.5431 30.9803 91.5431 32.3483V66.4222C91.4371 67.7902 90.378 68.9462 89.001 68.9462Z" fill="#F5F8FF"/>
</g>
<g filter="url(#filter3_d_172_5297)">
<path d="M93.8721 78.622H41.459C39.977 78.622 38.7061 77.36 38.7061 75.888V42.339C38.7061 40.866 39.977 39.604 41.459 39.604H93.8721C95.3541 39.604 96.6251 40.866 96.6251 42.339V75.888C96.6251 77.36 95.3541 78.622 93.8721 78.622Z" fill="#F5F8FF"/>
</g>
<g filter="url(#filter4_d_172_5297)">
<path d="M99.166 87.9823H36.1649C34.4709 87.9823 33.2009 86.6153 33.2009 85.0373V52.0143C33.2009 50.3323 34.5769 49.0703 36.1649 49.0703H99.166C100.861 49.0703 102.131 50.4373 102.131 52.0143V85.0373C102.131 86.7203 100.861 87.9823 99.166 87.9823Z" fill="#F5F8FF"/>
</g>
<path d="M80.319 62.2159H56.6011C55.9661 62.2159 55.436 61.6899 55.436 61.0589C55.436 60.4279 55.9661 59.9019 56.6011 59.9019H80.319C80.954 59.9019 81.4841 60.4279 81.4841 61.0589C81.4841 61.6899 80.954 62.2159 80.319 62.2159Z" fill="#E6ECF5"/>
<path d="M73.437 69.1561H43.471C43.048 69.1561 42.73 68.8411 42.73 68.4201C42.73 68.0001 43.048 67.6841 43.471 67.6841H73.331C73.754 67.6841 74.072 68.0001 74.072 68.4201C74.178 68.7361 73.86 69.1561 73.437 69.1561Z" fill="#E6ECF5"/>
<path d="M93.131 69.1561H77.9891C77.5661 69.1561 77.248 68.8411 77.248 68.4201C77.248 68.0001 77.5661 67.6841 77.9891 67.6841H93.0251C93.4491 67.6841 93.7661 68.0001 93.7661 68.4201C93.8721 68.7361 93.554 69.1561 93.131 69.1561Z" fill="#E6ECF5"/>
<g filter="url(#filter5_d_172_5297)">
<path d="M112.931 60.323V100.077C112.931 105.545 108.484 109.963 102.978 109.963H32.142C26.636 109.963 22.188 105.545 22.188 100.077V60.112C22.188 59.902 22.188 59.692 22.294 59.481H44.954C48.342 59.481 51.201 62.216 51.201 65.686C51.201 67.369 51.942 68.947 53.001 70.103C54.165 71.26 55.648 71.891 57.448 71.891H77.778C81.166 71.891 84.025 69.157 84.025 65.686C84.025 64.004 84.766 62.426 85.825 61.269C86.99 60.112 88.472 59.481 90.166 59.481H112.825C112.931 59.692 112.931 60.007 112.931 60.323Z" fill="white"/>
</g>
<g filter="url(#filter6_d_172_5297)">
<path d="M128 34.9619C128 37.1509 127.601 39.2399 126.902 41.2289C124.905 46.9989 120.113 51.5739 114.223 53.2649C112.526 53.7629 110.729 54.0609 108.932 54.0609C98.449 53.9619 89.864 45.5059 89.864 34.9619C89.864 24.4179 98.449 15.9629 108.932 15.9629C119.414 15.9629 128 24.5179 128 34.9619Z" fill="#5F57FF"/>
</g>
<path opacity="0.4" d="M127.002 41.2287C125.005 46.9987 120.213 51.5737 114.323 53.2647L101.344 40.3337L103.94 33.6687L106.136 31.8787L108.632 34.2657L109.93 28.4967L111.927 27.8997L113.025 27.3027L127.002 41.2287Z" fill="url(#paint0_linear_172_5297)"/>
<path d="M107.887 42.7807C107.887 42.9797 108.086 43.1787 108.286 43.1787H109.783C109.983 43.1787 110.183 42.9797 110.183 42.7807V41.5867C110.183 41.4877 110.083 41.3877 109.983 41.3877H107.986C107.887 41.3877 107.787 41.4877 107.787 41.5867V42.7807H107.887Z" fill="url(#paint1_linear_172_5297)"/>
<path d="M104.193 31.3418C102.396 31.3418 100.898 32.8338 100.898 34.6238V39.4978C100.898 40.0948 101.397 40.5928 101.996 40.5928H106.489C107.088 40.5928 107.587 40.0948 107.587 39.4978V34.6238C107.587 32.7338 106.09 31.3418 104.193 31.3418Z" fill="url(#paint2_linear_172_5297)"/>
<path d="M113.677 31.1432H110.981C110.882 31.1432 110.682 31.2422 110.682 31.4412V32.8342C110.682 33.0332 110.482 33.2322 110.283 33.2322C110.083 33.2322 109.883 33.0332 109.883 32.8342V31.1432V29.6512H112.579C112.878 29.6512 113.078 29.4522 113.078 29.1532V27.7612C113.078 27.4622 112.878 27.2632 112.579 27.2632H109.883V27.0642C109.883 26.9652 109.783 26.8652 109.684 26.8652H109.284C109.184 26.8652 109.085 26.9652 109.085 27.0642V31.1432H107.387C107.288 31.1432 107.188 31.2422 107.188 31.3422C107.188 31.4412 107.188 31.4412 107.288 31.4412C108.086 32.2372 108.486 33.3312 108.486 34.4252V39.2992C108.486 39.5982 108.386 39.7972 108.286 40.0952C108.286 40.1952 108.286 40.2942 108.386 40.3942H108.486H115.773C116.372 40.3942 116.772 39.8962 116.772 39.3992V34.4252C116.971 32.6352 115.474 31.1432 113.677 31.1432Z" fill="url(#paint3_linear_172_5297)"/>
<path d="M102.872 95.5543H82.3311C81.5891 95.5543 81.0601 95.0293 81.0601 94.2923C81.0601 93.5563 81.5891 93.0303 82.3311 93.0303H102.766C103.507 93.0303 104.037 93.5563 104.037 94.2923C104.143 94.9233 103.507 95.5543 102.872 95.5543Z" fill="#E6ECF5"/>
<path d="M93.66 101.865H82.3311C81.5891 101.865 81.0601 101.339 81.0601 100.602C81.0601 99.8659 81.5891 99.3398 82.3311 99.3398H93.66C94.401 99.3398 94.9311 99.8659 94.9311 100.602C95.0371 101.234 94.401 101.865 93.66 101.865Z" fill="#E6ECF5"/>
<g filter="url(#filter7_d_172_5297)">
<path d="M54.6951 93.8721V116.168C54.6951 117.324 53.7421 118.376 52.4711 118.376H19.0121C17.8471 118.376 16.7881 117.43 16.7881 116.168V93.8721C16.7881 92.7151 17.7411 91.6631 19.0121 91.6631H52.5771C53.7421 91.6631 54.6951 92.7151 54.6951 93.8721Z" fill="#EC853A"/>
</g>
<path d="M54.6951 112.907V116.168C54.6951 117.324 53.7421 118.376 52.4711 118.376H19.0121C17.8471 118.376 16.7881 117.43 16.7881 116.168V112.907L31.824 103.863L35.7421 101.444L39.6591 103.863L54.6951 112.907Z" fill="#F29653"/>
<path d="M54.6951 93.8721V94.9231L39.7651 103.863L35.8481 106.282L31.9301 103.863L16.7881 94.9231V93.8721C16.7881 92.7151 17.7411 91.6631 19.0121 91.6631H52.5771C53.7421 91.6631 54.6951 92.7151 54.6951 93.8721Z" fill="#FFA361"/>
<path d="M45.166 110.804H43.1539C42.6239 110.804 42.201 111.119 41.989 111.54C41.883 111.54 41.8829 111.435 41.7769 111.435C41.2479 111.33 40.613 111.435 40.189 111.856C39.871 112.066 39.5539 112.276 39.4479 112.171C39.3419 112.171 39.2359 112.066 39.1299 111.856L38.283 112.381C38.601 112.907 39.024 113.118 39.236 113.118C39.342 113.118 39.3419 113.118 39.4479 113.118C39.8709 113.118 40.2949 112.907 40.8239 112.487C41.0359 112.276 41.3539 112.171 41.5649 112.276C41.6709 112.276 41.7769 112.381 41.8829 112.592V113.118C41.8829 113.118 41.8829 113.118 41.7769 113.118C41.2479 113.012 40.613 113.118 40.189 113.538C39.871 113.749 39.5539 113.959 39.4479 113.854C39.3419 113.854 39.2359 113.749 39.1299 113.538L38.283 114.064C38.601 114.59 39.024 114.8 39.236 114.8C39.342 114.8 39.3419 114.8 39.4479 114.8C39.8709 114.8 40.2949 114.59 40.8239 114.169C41.0359 113.959 41.3539 113.854 41.5649 113.959C41.6709 113.959 41.7769 114.064 41.8829 114.274H41.989C42.095 114.8 42.6239 115.221 43.1539 115.221H45.166C45.907 115.221 46.4359 114.695 46.4359 113.959V111.961C46.4359 111.435 45.907 110.804 45.166 110.804ZM45.4829 114.169C45.4829 114.274 45.3769 114.38 45.2709 114.38H43.2599C43.1539 114.38 43.0479 114.274 43.0479 114.169V112.171C43.0479 112.066 43.1539 111.961 43.2599 111.961H45.2709C45.3769 111.961 45.4829 112.066 45.4829 112.171V114.169Z" fill="white"/>
<defs>
<filter id="filter0_d_172_5297" x="0.187988" y="13.144" width="134.743" height="129.819" filterUnits="userSpaceOnUse" color-interpolation-filters="sRGB">
<feFlood flood-opacity="0" result="BackgroundImageFix"/>
<feColorMatrix in="SourceAlpha" type="matrix" values="0 0 0 0 0 0 0 0 0 0 0 0 0 0 0 0 0 0 127 0" result="hardAlpha"/>
<feOffset dy="11"/>
<feGaussianBlur stdDeviation="11"/>
<feColorMatrix type="matrix" values="0 0 0 0 0.397708 0 0 0 0 0.47749 0 0 0 0 0.575 0 0 0 0.18 0"/>
<feBlend mode="normal" in2="BackgroundImageFix" result="effect1_dropShadow_172_5297"/>
<feBlend mode="normal" in="SourceGraphic" in2="effect1_dropShadow_172_5297" result="shape"/>
</filter>
<filter id="filter1_d_172_5297" x="30.7891" y="0.515137" width="73.648" height="83.123" filterUnits="userSpaceOnUse" color-interpolation-filters="sRGB">
<feFlood flood-opacity="0" result="BackgroundImageFix"/>
<feColorMatrix in="SourceAlpha" type="matrix" values="0 0 0 0 0 0 0 0 0 0 0 0 0 0 0 0 0 0 127 0" result="hardAlpha"/>
<feOffset dy="1"/>
<feGaussianBlur stdDeviation="11"/>
<feColorMatrix type="matrix" values="0 0 0 0 0.397708 0 0 0 0 0.47749 0 0 0 0 0.575 0 0 0 0.18 0"/>
<feBlend mode="normal" in2="BackgroundImageFix" result="effect1_dropShadow_172_5297"/>
<feBlend mode="normal" in="SourceGraphic" in2="effect1_dropShadow_172_5297" result="shape"/>
</filter>
<filter id="filter2_d_172_5297" x="21.7891" y="8.82324" width="91.754" height="83.123" filterUnits="userSpaceOnUse" color-interpolation-filters="sRGB">
<feFlood flood-opacity="0" result="BackgroundImageFix"/>
<feColorMatrix in="SourceAlpha" type="matrix" values="0 0 0 0 0 0 0 0 0 0 0 0 0 0 0 0 0 0 127 0" result="hardAlpha"/>
<feOffset dy="1"/>
<feGaussianBlur stdDeviation="11"/>
<feColorMatrix type="matrix" values="0 0 0 0 0.397708 0 0 0 0 0.47749 0 0 0 0 0.575 0 0 0 0.18 0"/>
<feBlend mode="normal" in2="BackgroundImageFix" result="effect1_dropShadow_172_5297"/>
<feBlend mode="normal" in="SourceGraphic" in2="effect1_dropShadow_172_5297" result="shape"/>
</filter>
<filter id="filter3_d_172_5297" x="16.7061" y="18.604" width="101.919" height="83.0181" filterUnits="userSpaceOnUse" color-interpolation-filters="sRGB">
<feFlood flood-opacity="0" result="BackgroundImageFix"/>
<feColorMatrix in="SourceAlpha" type="matrix" values="0 0 0 0 0 0 0 0 0 0 0 0 0 0 0 0 0 0 127 0" result="hardAlpha"/>
<feOffset dy="1"/>
<feGaussianBlur stdDeviation="11"/>
<feColorMatrix type="matrix" values="0 0 0 0 0.397708 0 0 0 0 0.47749 0 0 0 0 0.575 0 0 0 0.18 0"/>
<feBlend mode="normal" in2="BackgroundImageFix" result="effect1_dropShadow_172_5297"/>
<feBlend mode="normal" in="SourceGraphic" in2="effect1_dropShadow_172_5297" result="shape"/>
</filter>
<filter id="filter4_d_172_5297" x="11.2009" y="28.0703" width="112.93" height="82.9121" filterUnits="userSpaceOnUse" color-interpolation-filters="sRGB">
<feFlood flood-opacity="0" result="BackgroundImageFix"/>
<feColorMatrix in="SourceAlpha" type="matrix" values="0 0 0 0 0 0 0 0 0 0 0 0 0 0 0 0 0 0 127 0" result="hardAlpha"/>
<feOffset dy="1"/>
<feGaussianBlur stdDeviation="11"/>
<feColorMatrix type="matrix" values="0 0 0 0 0.397708 0 0 0 0 0.47749 0 0 0 0 0.575 0 0 0 0.18 0"/>
<feBlend mode="normal" in2="BackgroundImageFix" result="effect1_dropShadow_172_5297"/>
<feBlend mode="normal" in="SourceGraphic" in2="effect1_dropShadow_172_5297" result="shape"/>
</filter>
<filter id="filter5_d_172_5297" x="0.187988" y="23.481" width="134.743" height="94.4819" filterUnits="userSpaceOnUse" color-interpolation-filters="sRGB">
<feFlood flood-opacity="0" result="BackgroundImageFix"/>
<feColorMatrix in="SourceAlpha" type="matrix" values="0 0 0 0 0 0 0 0 0 0 0 0 0 0 0 0 0 0 127 0" result="hardAlpha"/>
<feOffset dy="-14"/>
<feGaussianBlur stdDeviation="11"/>
<feColorMatrix type="matrix" values="0 0 0 0 0.397708 0 0 0 0 0.47749 0 0 0 0 0.575 0 0 0 0.18 0"/>
<feBlend mode="normal" in2="BackgroundImageFix" result="effect1_dropShadow_172_5297"/>
<feBlend mode="normal" in="SourceGraphic" in2="effect1_dropShadow_172_5297" result="shape"/>
</filter>
<filter id="filter6_d_172_5297" x="81.864" y="12.9629" width="54.136" height="54.0981" filterUnits="userSpaceOnUse" color-interpolation-filters="sRGB">
<feFlood flood-opacity="0" result="BackgroundImageFix"/>
<feColorMatrix in="SourceAlpha" type="matrix" values="0 0 0 0 0 0 0 0 0 0 0 0 0 0 0 0 0 0 127 0" result="hardAlpha"/>
<feOffset dy="5"/>
<feGaussianBlur stdDeviation="4"/>
<feColorMatrix type="matrix" values="0 0 0 0 0.1125 0 0 0 0 0.295916 0 0 0 0 1 0 0 0 0.22 0"/>
<feBlend mode="normal" in2="BackgroundImageFix" result="effect1_dropShadow_172_5297"/>
<feBlend mode="normal" in="SourceGraphic" in2="effect1_dropShadow_172_5297" result="shape"/>
</filter>
<filter id="filter7_d_172_5297" x="8.78809" y="87.6631" width="53.907" height="42.7129" filterUnits="userSpaceOnUse" color-interpolation-filters="sRGB">
<feFlood flood-opacity="0" result="BackgroundImageFix"/>
<feColorMatrix in="SourceAlpha" type="matrix" values="0 0 0 0 0 0 0 0 0 0 0 0 0 0 0 0 0 0 127 0" result="hardAlpha"/>
<feOffset dy="4"/>
<feGaussianBlur stdDeviation="4"/>
<feColorMatrix type="matrix" values="0 0 0 0 0.92549 0 0 0 0 0.521569 0 0 0 0 0.227451 0 0 0 0.2 0"/>
<feBlend mode="normal" in2="BackgroundImageFix" result="effect1_dropShadow_172_5297"/>
<feBlend mode="normal" in="SourceGraphic" in2="effect1_dropShadow_172_5297" result="shape"/>
</filter>
<linearGradient id="paint0_linear_172_5297" x1="110.694" y1="37.3547" x2="121.719" y2="48.4197" gradientUnits="userSpaceOnUse">
<stop stop-color="#5F57FE"/>
<stop offset="1" stop-color="#5F57FE" stop-opacity="0"/>
</linearGradient>
<linearGradient id="paint1_linear_172_5297" x1="112.197" y1="45.3627" x2="99.1661" y2="32.2847" gradientUnits="userSpaceOnUse">
<stop offset="0.0113208" stop-color="#C2D1FF"/>
<stop offset="1" stop-color="white"/>
</linearGradient>
<linearGradient id="paint2_linear_172_5297" x1="112.616" y1="44.9458" x2="99.5849" y2="31.8679" gradientUnits="userSpaceOnUse">
<stop offset="0.0113208" stop-color="#C2D1FF"/>
<stop offset="1" stop-color="white"/>
</linearGradient>
<linearGradient id="paint3_linear_172_5297" x1="118.099" y1="41.1332" x2="108.366" y2="31.3652" gradientUnits="userSpaceOnUse">
<stop offset="0.0113208" stop-color="#C2D1FF"/>
<stop offset="1" stop-color="white"/>
</linearGradient>
</defs>
</svg>
