<svg width="127" height="127" viewBox="0 0 127 127" fill="none" xmlns="http://www.w3.org/2000/svg">
<path d="M63 125.564C97.493 125.564 125.455 97.5818 125.455 63.064C125.455 28.5462 97.493 0.563965 63 0.563965C28.507 0.563965 0.544922 28.5462 0.544922 63.064C0.544922 97.5818 28.507 125.564 63 125.564Z" fill="#EAEEF9"/>
<mask id="mask0_172_4424" style="mask-type:alpha" maskUnits="userSpaceOnUse" x="-1" y="-1" width="128" height="128">
<path d="M63 125.564C97.493 125.564 125.455 97.5818 125.455 63.064C125.455 28.5462 97.493 0.563965 63 0.563965C28.507 0.563965 0.544922 28.5462 0.544922 63.064C0.544922 97.5818 28.507 125.564 63 125.564Z" fill="#F1F3F9" stroke="#D6DCE8" stroke-width="2" stroke-miterlimit="10"/>
</mask>
<g mask="url(#mask0_172_4424)">
<g filter="url(#filter0_d_172_4424)">
<path d="M106.349 46.1197L107.474 121.304C107.474 123.78 105.45 125.806 102.75 125.806H29.4197C26.9453 125.806 24.6959 123.78 24.6959 121.304V24.735C24.6959 22.2588 26.7204 20.2329 29.4197 20.2329H82.5057L106.349 46.1197Z" fill="url(#paint0_linear_172_4424)"/>
</g>
<path d="M82.5062 20.2329V40.9424C82.5062 43.8687 84.9806 46.1197 87.9048 46.1197H106.35" fill="#D5DDEA"/>
</g>
<path d="M115.098 27.0948L116.484 26.4785C116.946 26.3244 116.946 25.7081 116.484 25.554L115.098 24.9377C113.405 24.1674 112.019 22.7807 111.249 21.0859L110.633 19.6992C110.479 19.237 109.863 19.237 109.709 19.6992L109.094 21.0859C108.324 22.7807 106.938 24.1674 105.245 24.9377L103.859 25.554C103.397 25.7081 103.397 26.3244 103.859 26.4785L105.245 27.0948C106.938 27.8651 108.324 29.2518 109.094 30.9466L109.709 32.3333C109.863 32.7955 110.479 32.7955 110.633 32.3333L111.249 30.9466C111.865 29.2518 113.251 27.8651 115.098 27.0948Z" fill="#989FB0"/>
<path d="M100.164 18.3126L101.088 17.8504C101.395 17.6963 101.395 17.3882 101.088 17.2341L100.164 16.9259C98.932 16.4637 98.0082 15.5393 97.5464 14.3067L97.0845 13.3822C96.9305 13.0741 96.6226 13.0741 96.4686 13.3822L96.1607 14.3067C95.5448 15.5393 94.6211 16.4637 93.5433 16.9259L92.4656 17.3882C92.3116 17.3882 92.3116 17.8504 92.4656 17.8504L93.3893 18.3126C94.6211 18.7748 95.5448 19.6993 96.1607 20.9319L96.6226 21.8563C96.7765 22.1645 97.0845 22.1645 97.2384 21.8563L97.5464 20.9319C98.0082 19.6993 98.932 18.7748 100.164 18.3126Z" fill="#989FB0"/>
<path d="M112.018 9.37634L112.788 9.06819C112.942 8.91412 112.942 8.76005 112.788 8.60597L112.018 8.29782C111.095 7.98968 110.479 7.21931 110.017 6.29486L109.709 5.52449C109.555 5.37042 109.401 5.37042 109.247 5.52449L108.939 6.29486C108.631 7.21931 107.861 7.8356 106.938 8.29782L106.476 8.60597C106.168 8.76005 106.168 9.06819 106.476 9.06819L107.246 9.37634C108.169 9.68449 108.785 10.4549 109.247 11.3793L109.555 12.1497C109.709 12.3037 109.863 12.3037 110.017 12.1497L110.325 11.3793C110.479 10.4549 111.249 9.68449 112.018 9.37634Z" fill="#989FB0"/>
<defs>
<filter id="filter0_d_172_4424" x="2.69592" y="9.23291" width="126.778" height="149.573" filterUnits="userSpaceOnUse" color-interpolation-filters="sRGB">
<feFlood flood-opacity="0" result="BackgroundImageFix"/>
<feColorMatrix in="SourceAlpha" type="matrix" values="0 0 0 0 0 0 0 0 0 0 0 0 0 0 0 0 0 0 127 0" result="hardAlpha"/>
<feOffset dy="11"/>
<feGaussianBlur stdDeviation="11"/>
<feColorMatrix type="matrix" values="0 0 0 0 0.397708 0 0 0 0 0.47749 0 0 0 0 0.575 0 0 0 0.27 0"/>
<feBlend mode="normal" in2="BackgroundImageFix" result="effect1_dropShadow_172_4424"/>
<feBlend mode="normal" in="SourceGraphic" in2="effect1_dropShadow_172_4424" result="shape"/>
</filter>
<linearGradient id="paint0_linear_172_4424" x1="66.0581" y1="17.7909" x2="66.0581" y2="126.944" gradientUnits="userSpaceOnUse">
<stop stop-color="#FDFEFF"/>
<stop offset="0.9964" stop-color="#ECF0F5"/>
</linearGradient>
</defs>
</svg>
