<svg width="105" height="25" viewBox="0 0 105 25" fill="none" xmlns="http://www.w3.org/2000/svg">
<path d="M12 24C18.6274 24 24 18.6274 24 12C24 5.37257 18.6274 0 12 0C5.37258 0 0 5.37257 0 12C0 13.914 0.448118 15.7234 1.24516 17.3289C2.3209 12.5795 6.26713 9.51701 11.5044 9.51701C14.6742 9.51701 18.0108 10.81 20.0544 13.3124L16.8847 16.0651C15.7169 14.6887 13.9652 13.7295 11.7547 13.7295C8.12612 13.7295 5.7071 16.2736 5.7071 19.9856C5.7071 20.889 5.84963 21.7199 6.11609 22.4609C7.85465 23.4409 9.86203 24 12 24Z" fill="#5F57FF"/>
<path d="M30.8402 20V4.3958H36.4885C40.2247 4.3958 41.829 6.54962 41.829 9.45068C41.829 12.8353 39.5434 14.4396 36.1808 14.4396H33.4995V20H30.8402ZM33.4995 12.0441H35.917C38.0928 12.0441 39.0818 10.9452 39.0818 9.40673C39.0818 7.7584 38.0269 6.7694 36.1148 6.7694H33.4995V12.0441ZM47.1502 20.1758C44.1832 20.1758 41.9635 18 41.9635 14.6814C41.9635 11.4507 44.1832 9.12102 47.1283 9.12102C48.4909 9.12102 49.6777 9.6265 50.4469 10.5935L50.4909 10.5715V9.27486H52.9524V20H50.6007V18.5934L50.5568 18.5714C49.7876 19.6044 48.6447 20.1758 47.1502 20.1758ZM47.5458 17.9341C49.2161 17.9341 50.6007 16.6374 50.6007 14.7034C50.6007 12.7913 49.3041 11.3408 47.5458 11.3408C45.8316 11.3408 44.469 12.6375 44.469 14.7034C44.469 16.5934 45.7217 17.9341 47.5458 17.9341ZM55.7947 24.3516L57.7287 19.4066L53.3332 9.27486H55.9705L58.9155 16.4616H58.9595L61.7067 9.27486H64.2342L58.3441 24.3516H55.7947ZM64.7431 24.3516V9.27486H67.2046V10.5496H67.2485C68.0397 9.6265 69.2265 9.12102 70.6331 9.12102C73.6001 9.12102 75.8199 11.4507 75.8199 14.6814C75.8199 18 73.6001 20.1758 70.6111 20.1758C69.1606 20.1758 68.0397 19.6484 67.2485 18.6813L67.2046 18.7033V24.3516H64.7431ZM70.2375 17.9341C72.0397 17.9341 73.3144 16.5934 73.3144 14.7034C73.3144 12.6375 71.9298 11.3408 70.2155 11.3408C68.3694 11.3408 67.0947 12.7913 67.0947 14.7034C67.0947 16.6374 68.4793 17.9341 70.2375 17.9341ZM78.2395 7.69246C77.3164 7.69246 76.5911 6.94522 76.5911 6.04413C76.5911 5.16502 77.3164 4.41778 78.2395 4.41778C79.1625 4.41778 79.9098 5.16502 79.9098 6.04413C79.9098 6.94522 79.1625 7.69246 78.2395 7.69246ZM77.0087 20V9.27486H79.4702V20H77.0087ZM81.3045 24.3516V9.27486H83.766V10.5496H83.81C84.6012 9.6265 85.788 9.12102 87.1945 9.12102C90.1615 9.12102 92.3813 11.4507 92.3813 14.6814C92.3813 18 90.1615 20.1758 87.1726 20.1758C85.722 20.1758 84.6012 19.6484 83.81 18.6813L83.766 18.7033V24.3516H81.3045ZM86.7989 17.9341C88.6011 17.9341 89.8758 16.5934 89.8758 14.7034C89.8758 12.6375 88.4912 11.3408 86.777 11.3408C84.9308 11.3408 83.6561 12.7913 83.6561 14.7034C83.6561 16.6374 85.0407 17.9341 86.7989 17.9341ZM103.218 14.5056C103.218 14.9012 103.174 15.2748 103.152 15.4506H95.3284C95.6361 17.011 96.8009 17.9341 98.4712 17.9341C99.7459 17.9341 100.625 17.3627 101.174 16.6814L102.889 18.1539C101.988 19.3187 100.647 20.1758 98.3393 20.1758C95.0866 20.1758 92.779 18 92.779 14.6374C92.779 11.3408 95.0207 9.12102 98.1635 9.12102C101.174 9.12102 103.218 11.3847 103.218 14.5056ZM98.1415 11.3408C96.7789 11.3408 95.724 12.11 95.3723 13.5166H100.735C100.427 12.2199 99.5481 11.3408 98.1415 11.3408Z" fill="#0D0D12"/>
</svg>
